<?xml version="1.0" encoding="utf-8"?>
<!-- Generator: Adobe Illustrator 16.0.0, SVG Export Plug-In . SVG Version: 6.00 Build 0)  -->
<!DOCTYPE svg PUBLIC "-//W3C//DTD SVG 1.1//EN" "http://www.w3.org/Graphics/SVG/1.1/DTD/svg11.dtd">
<svg version="1.1" id="图形" xmlns="http://www.w3.org/2000/svg" xmlns:xlink="http://www.w3.org/1999/xlink" x="0px" y="0px"
	 width="1000.637px" height="1000.678px" viewBox="15.167 -16.333 1000.637 1000.678"
	 enable-background="new 15.167 -16.333 1000.637 1000.678" xml:space="preserve">
<path d="M670.818,280.839c0,42.48-0.504,89.231-13.252,138.616s-59.478,40.435-61.23-4.915s-15.014-30.8-43.266-9.25
	s-77.161-57.44-77.161-57.44s-13.091,86.99-52.091,71.99c-21.354-8.452-36.152-15.601-26.576-58.3s-12.173,28.593-54.298,24.947
	s-9.825-68.675-9.825-68.675s17.699-24.466,17.699-36.972c0-96.098,71.634-174,160-174
	C599.183,106.839,670.818,184.741,670.818,280.839z"/>
<line x1="331.522" y1="372.881" x2="394.28" y2="385.382"/>
<g>
	<polygon points="375.351,673.579 358.279,688.787 363.365,737.586 378.254,760.639 412.106,730.484 	"/>
	<polygon points="352.135,629.837 355.862,627.43 375.941,658.519 435.933,605.08 414.702,530.288 347.956,589.743 	"/>
	<polygon points="353.104,639.134 356.893,675.488 369.392,664.353 	"/>
	<polygon points="418.654,724.651 459.537,688.234 439.226,616.681 381.901,667.745 	"/>
	<polygon points="596.031,462.468 513.268,442.488 509.01,446.281 546.22,506.838 	"/>
	<polygon points="392.806,413.406 420.414,510.665 496.665,442.742 494.871,439.824 496.948,438.548 	"/>
	<polygon points="539.646,512.694 502.437,452.136 423.707,522.267 444.938,597.058 	"/>
	<polygon points="448.231,608.659 468.542,680.211 502.783,649.71 565.094,554.108 545.418,522.087 	"/>
	<polygon points="371.705,766.472 365.35,756.633 366.828,770.817 	"/>
	<polygon points="411.409,518.687 380.693,410.482 327.946,397.747 346.57,576.444 	"/>
	<polygon points="377.664,775.698 368.214,784.116 374.689,846.242 399.068,808.838 	"/>
	<polygon points="599.236,463.242 604.654,469.323 551.993,516.232 570.33,546.075 620.908,468.474 	"/>
	<polygon points="431.035,759.791 418.065,739.71 384.213,769.865 404.25,800.888 	"/>
	<polygon points="462.83,699.835 424.614,733.877 436.217,751.842 465.04,707.618 	"/>
	<polygon points="471.835,691.814 472.899,695.561 480.195,684.367 	"/>
</g>
<path fill="none" d="M298.818-205.161c-0.667,0-1.333,0-2,0"/>
</svg>
