<?xml version="1.0" encoding="utf-8"?>
<!-- Generator: Adobe Illustrator 16.0.0, SVG Export Plug-In . SVG Version: 6.00 Build 0)  -->
<!DOCTYPE svg PUBLIC "-//W3C//DTD SVG 1.1//EN" "http://www.w3.org/Graphics/SVG/1.1/DTD/svg11.dtd">
<svg version="1.1" id="图形" xmlns="http://www.w3.org/2000/svg" xmlns:xlink="http://www.w3.org/1999/xlink" x="0px" y="0px"
	 width="1000.637px" height="1000.678px" viewBox="15.167 -16.333 1000.637 1000.678"
	 enable-background="new 15.167 -16.333 1000.637 1000.678" xml:space="preserve">
<g>
	<path d="M264.031,600.027c2.415,30.693,26.77,54.813,56.48,54.813h372.613c29.71,0,54.066-24.119,56.48-54.813H264.031z"/>
	<path d="M693.125,310.839h-75.436l-22.871-72h-190l-19.688,72h-64.619c-31.312,0-56.693,26.784-56.693,59.823v54.177h169.667
		c18.127-24.469,47.209-40.333,80-40.333s61.872,15.864,79.999,40.333h149.834v6.188H597.715c9.67,15.341,15.27,33.505,15.27,52.979
		c0,54.952-44.548,99.5-99.5,99.5s-99.5-44.548-99.5-99.5c0-19.474,5.6-37.638,15.27-52.979H263.818v162.813h486V370.662
		C749.818,337.623,724.435,310.839,693.125,310.839z M655.818,394.839c-8.284,0-15-6.716-15-15s6.716-15,15-15s15,6.716,15,15
		S664.102,394.839,655.818,394.839z"/>
</g>
<path d="M515.152,403.507c-45.103,0-81.667,36.563-81.667,81.667c0,45.104,36.563,81.666,81.667,81.666
	c45.104,0,81.666-36.563,81.666-81.666C596.818,440.07,560.255,403.507,515.152,403.507z M515.818,530.839
	c-24.853,0-45-20.147-45-45c0-24.853,20.147-45,45-45c24.853,0,45,20.147,45,45C560.818,510.692,540.67,530.839,515.818,530.839z"/>
</svg>
