<?xml version="1.0" encoding="utf-8"?>
<!-- Generator: Adobe Illustrator 16.0.0, SVG Export Plug-In . SVG Version: 6.00 Build 0)  -->
<!DOCTYPE svg PUBLIC "-//W3C//DTD SVG 1.1//EN" "http://www.w3.org/Graphics/SVG/1.1/DTD/svg11.dtd">
<svg version="1.1" id="图形" xmlns="http://www.w3.org/2000/svg" xmlns:xlink="http://www.w3.org/1999/xlink" x="0px" y="0px"
	 width="1000.637px" height="1000.678px" viewBox="15.167 -16.333 1000.637 1000.678"
	 enable-background="new 15.167 -16.333 1000.637 1000.678" xml:space="preserve">
<polygon points="587.728,208.175 601.105,208.175 581.485,168.347 581.485,166.839 449.485,166.839 449.485,166.911 
	449.484,166.911 430.681,208.175 443.868,208.175 457.236,178.839 573.277,178.839 "/>
<g>
	<path d="M392.953,204.927l-2.055-2.068c-3.621-3.642-9.813-3.356-13.833,0.641l-8.554,8.501c-4.021,3.997-4.346,10.187-0.726,13.83
		l2.737,2.754c-7.83,9.077-7.006,22.783,1.952,30.832l20.458,18.381c22.067-24.155,46.857-52.149,46.857-52.149l-20.458-18.382
		C411.859,200.556,401.08,199.891,392.953,204.927z"/>
	<path d="M668.822,228.069c3.507-3.752,2.993-9.93-1.148-13.801l-8.81-8.235c-4.142-3.871-10.34-3.969-13.848-0.217l-2.812,3.008
		c-8.905-6.755-21.653-5.813-29.454,2.53l-18.781,20.093c23.716,22.538,51.216,47.875,51.216,47.875l18.78-20.091
		c7.312-7.822,7.838-19.543,1.831-27.924L668.822,228.069z"/>
</g>
<path d="M609.899,498.21c-3.199,1.73-8.579-2.024-12.018-8.383l-7.753-14.341c0,0,9.733-5.444,18.392-9.945l7.753,14.342
	c3.438,6.361,3.632,12.918,0.432,14.646L609.899,498.21z"/>
<path d="M428.164,494.944c-3.238-1.657-3.19-8.217,0.103-14.653l7.428-14.511c0,0,9.999,4.938,18.612,9.524l-7.429,14.513
	c-3.295,6.436-8.589,10.309-11.826,8.65L428.164,494.944z"/>
<path d="M518.486,238.839c-67.751,0-122.674,54.923-122.674,122.673s54.923,122.673,122.674,122.673
	c67.75,0,122.673-54.923,122.673-122.673S586.236,238.839,518.486,238.839z M519.221,472.002
	c-60.797,0-110.083-49.285-110.083-110.082c0-60.796,49.286-110.082,110.083-110.082c60.795,0,110.08,49.285,110.08,110.082
	C629.301,422.718,580.016,472.002,519.221,472.002z"/>
<polygon points="506.769,369.926 516.396,280.299 528.318,369.649 "/>
<polygon points="507.623,359.697 575.774,362.912 508.807,375.966 "/>
</svg>
