<?xml version="1.0" encoding="utf-8"?>
<!-- Generator: Adobe Illustrator 16.0.0, SVG Export Plug-In . SVG Version: 6.00 Build 0)  -->
<!DOCTYPE svg PUBLIC "-//W3C//DTD SVG 1.1//EN" "http://www.w3.org/Graphics/SVG/1.1/DTD/svg11.dtd">
<svg version="1.1" id="图形" xmlns="http://www.w3.org/2000/svg" xmlns:xlink="http://www.w3.org/1999/xlink" x="0px" y="0px"
	 width="1000.637px" height="1000.678px" viewBox="15.167 -16.333 1000.637 1000.678"
	 enable-background="new 15.167 -16.333 1000.637 1000.678" xml:space="preserve">
<path d="M567.876,182.056l159.629,109.855c48.185-87.795,57.759-171.473,18.828-198.264
	C707.404,66.855,632.667,105.688,567.876,182.056z"/>
<rect x="638.38" y="167.618" transform="matrix(0.5669 -0.8238 0.8238 0.5669 77.018 634.994)" width="8" height="153.273"/>
<path d="M568.376,202.809l-22.56-5.587l-0.91-0.625c-0.118,0.102-0.237,0.209-0.354,0.311l-2.008-0.496l1.441,0.992
	c-30.293,26.239-60.546,60.007-87.741,99.525c-42.304,61.471-69.011,124.896-77.781,177.219l136.639,94.033
	c45.737-26.882,95.438-74.483,137.742-135.954c27.195-39.518,47.929-79.837,61.615-117.505l0.87,0.599l-0.583-1.374
	c0.046-0.125,0.094-0.25,0.139-0.374l-0.418-0.287l-5.947-14.031L568.376,202.809z"/>
<path d="M343.15,424.84c-17.524-9.343-23.527,21.926-45.526,74.619c-21.998,52.694-48.051,32.566-38.748,37.753
	c0,0,17.04-152.669,26.879-172.33c9.84-19.661,146.555-43.774,146.555-43.774s-47.016,90.093-52.383,119.018
	C374.562,469.05,360.674,434.183,343.15,424.84z"/>
<polygon points="499.864,567.285 482.272,575.208 383.942,507.538 382.586,486.576 "/>
<path d="M674.889,622.776c11.414,1.915-120.215,97.369-145.772,85.393c-25.562-11.972,72.134-82.237,68.235-111.955
	c-22.186-26.068-47.061-45.862-47.061-45.862s40.197-26.846,75.751-75.068C647.555,468.252,679.258,575.261,674.889,622.776z"/>
<polygon fill="#FFFFFF" points="565.839,530.353 561.542,533.069 395.318,418.675 395.496,413.124 "/>
<circle fill="#FFFFFF" cx="589.961" cy="316.034" r="45.869"/>
<circle cx="589.961" cy="316.033" r="32.715"/>
<circle cx="606.218" cy="280.233" r="6.602"/>
<circle cx="572.679" cy="350.708" r="6.602"/>
<circle cx="625.352" cy="332.104" r="6.602"/>
<circle cx="554.57" cy="299.962" r="6.601"/>
<path d="M462.123,712.592c-8.869-4.401-17.838-7.675-26.565-9.853c0.079-0.403,0.142-0.811,0.181-1.223
	c0.534-5.479-2.495-10.887-8.054-15.569c0.4-0.327,0.78-0.679,1.13-1.066c6.395-7.094,1.775-21.683-10.318-32.589
	c-0.781-0.704-1.576-1.374-2.377-2.015c5.113-6.573,10.232-16.422,14.137-27.981c7.777-23.021,7.79-44.079,0.027-47.029
	c-0.706-0.271-1.453-0.374-2.232-0.334c4.397-10.023,5.357-18.239,1.778-21.545c-2.773-2.561-7.789-1.729-13.816,1.709
	c1.604-6.268,1.296-11.182-1.328-13.604c-5.304-4.898-18.335,1.938-31.131,15.577c-2.274,1.831-4.609,3.929-6.959,6.271
	c-7.978,1.813-18.338,7.023-28.611,14.908c-1.097,0.842-2.164,1.693-3.206,2.555c-6.262-4.911-21.885,4.586-35.902,21.704
	c-11.25-4.652-22.146-6.14-30.395-3.897c-26.995-28.657-64.976-42.034-87.858-29.977c-17.262,9.097-21.32,30.239-12.738,53.468
	c-11.272,8.339-16.684,20.339-13.125,32.969c2.838,10.08,10.876,18.77,21.775,24.883c-0.795,4.107-0.657,8.416,0.578,12.802
	c0.183,0.647,0.389,1.289,0.613,1.926c-6.457,7.588-9.032,16.928-6.298,26.643c3.89,13.813,17.554,25.011,34.954,30.546
	c0.17,1.588,0.46,3.19,0.915,4.806c4.482,15.916,21.935,28.364,43.14,32.668c-0.527,5.091,0.04,10.201,1.861,15.052
	c7.33,19.518,32.141,27.429,55.418,17.667c0.641-0.27,1.271-0.552,1.896-0.843c11.204,6.926,26.979,8.054,42.112,1.708
	c3.164-1.325,6.121-2.927,8.876-4.727c7.961,10.011,23.315,17.669,41.522,19.443c26.31,2.566,49.141-8.075,53.002-24.105
	c22.586,1.266,41.216-5.776,48.545-20.548C525.726,768.696,502.648,732.699,462.123,712.592z"/>
</svg>
