<?xml version="1.0" encoding="utf-8"?>
<!-- Generator: Adobe Illustrator 16.0.0, SVG Export Plug-In . SVG Version: 6.00 Build 0)  -->
<!DOCTYPE svg PUBLIC "-//W3C//DTD SVG 1.1//EN" "http://www.w3.org/Graphics/SVG/1.1/DTD/svg11.dtd">
<svg version="1.1" id="图形" xmlns="http://www.w3.org/2000/svg" xmlns:xlink="http://www.w3.org/1999/xlink" x="0px" y="0px"
	 width="1000.637px" height="1000.678px" viewBox="15.167 -16.333 1000.637 1000.678"
	 enable-background="new 15.167 -16.333 1000.637 1000.678" xml:space="preserve">
<path fill="#FFFFFF" stroke="#000000" stroke-width="10" d="M448.818,192.839c-86.156,0-156,69.844-156,156s69.844,156,156,156
	s156-69.844,156-156S534.974,192.839,448.818,192.839z M449.349,498.977c-83.165,0-150.583-67.418-150.583-150.583
	c0-83.165,67.418-150.583,150.583-150.583c83.165,0,150.583,67.419,150.583,150.583
	C599.932,431.559,532.513,498.977,449.349,498.977z"/>
<path d="M544.211,289.588c-49.64-46.124-122.338-36.784-117.349-48.785c4.989-12.002,35.303-10.811,67.709,2.662
	C526.976,256.936,549.201,277.586,544.211,289.588z"/>
<path d="M545.748,524.258c21.683-27.624,19.521-19.532,46.543-40.355l155.042,178.811c16.16,18.639,18.842,42.782,5.989,53.926l0,0
	c-12.852,11.145-36.372,5.068-52.531-13.569L545.748,524.258z"/>
<rect x="524.418" y="481.222" transform="matrix(0.7433 -0.669 0.669 0.7433 -183.3746 496.9314)" width="62.729" height="12.338"/>
</svg>
