<?xml version="1.0" encoding="utf-8"?>
<!-- Generator: Adobe Illustrator 16.0.0, SVG Export Plug-In . SVG Version: 6.00 Build 0)  -->
<!DOCTYPE svg PUBLIC "-//W3C//DTD SVG 1.1//EN" "http://www.w3.org/Graphics/SVG/1.1/DTD/svg11.dtd">
<svg version="1.1" id="图形" xmlns="http://www.w3.org/2000/svg" xmlns:xlink="http://www.w3.org/1999/xlink" x="0px" y="0px"
	 width="1000.637px" height="1000.678px" viewBox="15.167 -16.333 1000.637 1000.678"
	 enable-background="new 15.167 -16.333 1000.637 1000.678" xml:space="preserve">
<path d="M802.385,377.884C771.694,268.6,709.442,190.504,663.338,203.451c-13.615,3.824-11.689,3.747-38.085,36.658
	c-2.941,3.667-7.637,6.976-13.687,9.912c-19.366,10.354-194.956,3.191-202.967-9.912c-22.696-37.121-22.696-37.121-40.177-41.579
	c-50.322-12.83-113.85,65.934-141.896,175.926c-28.045,109.991-16.928,221.403,40.334,222.39s98.192-49.987,111.02-82.022
	c14.906-37.227,198.474-17.697,248.496-2.185c6.339,2.154,10.91,4.668,13.24,7.568c22.92,28.521,95.175,107.675,134.859,78.994
	C820.58,586.255,833.074,487.168,802.385,377.884z M349.88,402.516c-24.498,0-44.358-19.86-44.358-44.358
	s19.86-44.358,44.358-44.358s44.358,19.86,44.358,44.358S374.378,402.516,349.88,402.516z M680.776,313.801
	c9.681,0,17.528,7.848,17.528,17.529c0,9.681-7.848,17.528-17.528,17.528s-17.528-7.848-17.528-17.528
	C663.248,321.648,671.095,313.801,680.776,313.801z M645.719,383.199c-9.682,0-17.529-7.848-17.529-17.529
	c0-9.681,7.848-17.528,17.529-17.528c9.681,0,17.528,7.848,17.528,17.528C663.248,375.352,655.4,383.199,645.719,383.199z
	 M680.776,412.532c-9.681,0-17.528-7.847-17.528-17.528c0-9.681,7.848-17.528,17.528-17.528s17.528,7.848,17.528,17.528
	C698.304,404.685,690.457,412.532,680.776,412.532z M715.833,383.915c-9.681,0-17.528-7.848-17.528-17.529
	c0-9.681,7.848-17.528,17.528-17.528c9.682,0,17.529,7.848,17.529,17.528C733.362,376.067,725.514,383.915,715.833,383.915z"/>
<path d="M376.37,345.637h-15.453l-0.131-15.005c-0.055-6.363-5.26-11.477-11.623-11.42l-1.344,0.012
	c-6.363,0.056-11.477,5.259-11.421,11.622l0.129,14.792h-14.345c-6.363,0-11.522,5.159-11.522,11.522v1.344
	c0,6.364,5.159,11.522,11.522,11.522h14.558l0.131,15.005c0.056,6.363,5.26,11.477,11.623,11.421l1.344-0.012
	c6.364-0.055,11.477-5.259,11.421-11.622l-0.129-14.792h15.24c6.363,0,11.522-5.158,11.522-11.522v-1.344
	C387.892,350.797,382.732,345.637,376.37,345.637z"/>
</svg>
