<?xml version="1.0" encoding="utf-8"?>
<!-- Generator: Adobe Illustrator 16.0.0, SVG Export Plug-In . SVG Version: 6.00 Build 0)  -->
<!DOCTYPE svg PUBLIC "-//W3C//DTD SVG 1.1//EN" "http://www.w3.org/Graphics/SVG/1.1/DTD/svg11.dtd">
<svg version="1.1" id="图形" xmlns="http://www.w3.org/2000/svg" xmlns:xlink="http://www.w3.org/1999/xlink" x="0px" y="0px"
	 width="1000.637px" height="1000.678px" viewBox="15.167 -16.333 1000.637 1000.678"
	 enable-background="new 15.167 -16.333 1000.637 1000.678" xml:space="preserve">
<circle cx="476.955" cy="407.633" r="65.84"/>
<path d="M501.498,509.407c2.622,0,5.224,0.046,7.807,0.128c11.691-35.796,61.594-62.696,121.386-62.696
	c2.014,0,4.011,0.042,6.001,0.102l-0.293-0.744l30.023-26.402l-21.875-24.875l17.872-27.891l-25.193-16.143l9.422-28.398
	l-33.192-11.012l-1.326-13.196l0.351-36.716l-48.916-0.467l-10.839-27.546l-37.206,14.64l-26.402-30.024l-24.875,21.875
	L436.35,222.17l-16.143,25.193l-28.398-9.421l-7.116,21.448l-40.7-0.389l-0.378,39.654l-1.285,0.129l1.172,11.667l-0.052,5.447
	l-40.578,15.967l14.64,37.206l-30.024,26.402l21.875,24.875l-17.872,27.891l25.192,16.143l-9.421,28.398l34.39,11.409l-0.222,23.299
	l23.908,0.229l3.841,38.219l5.239-0.526C385.413,533.554,438.124,509.407,501.498,509.407z M476.955,320.575
	c48.081,0,87.059,38.977,87.059,87.058s-38.978,87.059-87.059,87.059s-87.059-38.978-87.059-87.059S428.874,320.575,476.955,320.575
	z"/>
<path d="M913.56,559.766c0.336-1.647,0.518-3.314,0.518-4.998c0-31.207-58.823-56.505-131.387-56.505
	c-15.907,0-31.152,1.217-45.265,3.443c-19.053-26.077-60.166-44.126-107.821-44.126c-57.458,0-105.413,26.237-116.647,61.149
	c-2.482-0.079-4.982-0.125-7.502-0.125c-68.566,0-124.149,29.852-124.149,66.676c0,36.823,55.583,66.675,124.149,66.675
	c14.995,0,29.37-1.428,42.68-4.045c22.519,13.297,62.232,22.126,107.472,22.126c53.563,0,99.383-12.377,118.084-29.891
	c22.377,7.359,51.537,11.81,83.429,11.81c70.513,0,127.675-21.757,127.675-48.594C984.794,584.238,955.762,567.695,913.56,559.766z"
	/>
</svg>
