<?xml version="1.0" encoding="utf-8"?>
<!-- Generator: Adobe Illustrator 16.0.0, SVG Export Plug-In . SVG Version: 6.00 Build 0)  -->
<!DOCTYPE svg PUBLIC "-//W3C//DTD SVG 1.1//EN" "http://www.w3.org/Graphics/SVG/1.1/DTD/svg11.dtd">
<svg version="1.1" id="图形" xmlns="http://www.w3.org/2000/svg" xmlns:xlink="http://www.w3.org/1999/xlink" x="0px" y="0px"
	 width="1000.637px" height="1000.678px" viewBox="15.167 -16.333 1000.637 1000.678"
	 enable-background="new 15.167 -16.333 1000.637 1000.678" xml:space="preserve">
<path d="M739.462,394.549c0-12.112-8.305-22.536-20.244-27.248c2.631-4.226,4.127-9.06,4.127-14.198
	c0-16.532-15.463-29.933-34.539-29.933c-10.635,0-20.143,4.169-26.479,10.721c-6.336-6.552-15.846-10.721-26.48-10.721
	c-8.214,0-15.754,2.49-21.682,6.64c-5.928-4.15-13.469-6.64-21.683-6.64c-10.965,0-20.729,4.433-27.056,11.338
	c-6.326-6.905-16.09-11.338-27.055-11.338c-12.801,0-23.967,6.041-29.934,15.007c-5.965-8.966-17.131-15.007-29.933-15.007
	c-12.919,0-24.173,6.151-30.097,15.254c-4.955-2.381-10.654-3.742-16.722-3.742c-19.075,0-34.538,13.402-34.538,29.933
	c0,5.454,1.691,10.563,4.632,14.967c-2.941,4.404-4.632,9.513-4.632,14.967c0,7.855,3.496,15,9.207,20.339
	c-5.711,5.34-9.207,12.484-9.207,20.339c0,7.667,3.331,14.659,8.801,19.956c-5.471,5.296-8.801,12.288-8.801,19.956
	c0,8.045,3.67,15.344,9.628,20.723c-5.958,5.378-9.628,12.677-9.628,20.722c0,7.303,3.021,13.992,8.034,19.188
	c-5.013,5.197-8.034,11.887-8.034,19.189c0,5.453,1.691,10.563,4.632,14.967c-2.941,4.402-4.632,9.512-4.632,14.965
	c0,5.455,1.691,10.564,4.632,14.967c-2.941,4.404-4.632,9.514-4.632,14.967c0,16.531,15.463,29.934,34.538,29.934
	c6.938,0,13.393-1.779,18.804-4.83c5.412,3.051,11.867,4.83,18.804,4.83c10.965,0,20.729-4.432,27.055-11.338
	c6.326,6.906,16.09,11.338,27.055,11.338c9.932,0,18.877-3.637,25.178-9.453c5.346,4.809,12.467,8.188,20.557,9.215
	c8.033,1.02,15.719-0.445,22.07-3.715c3.748,1.852,7.926,3.146,12.402,3.715c12.186,1.547,23.578-2.611,30.707-10.146
	c5.441,5.303,12.947,9.055,21.551,10.146c8.527,1.084,16.664-0.633,23.229-4.34c4.049,2.188,8.646,3.709,13.611,4.34
	c18.924,2.402,35.951-8.943,38.035-25.344c0.834-6.58-0.867-12.971-4.422-18.424c2.326-3.424,3.881-7.336,4.422-11.592
	c0.83-6.545-0.852-12.902-4.367-18.338c2.297-3.404,3.83-7.289,4.367-11.514c0.832-6.563-0.859-12.938-4.395-18.381
	c2.311-3.414,3.855-7.311,4.395-11.551c0.973-7.666-1.492-15.076-6.324-21.043c5.469-4.504,9.193-10.668,10.098-17.789
	c1.346-10.596-3.883-20.703-12.852-27.182c5.586-2.513,10.24-6.643,13.129-12.199c5.813-11.172,2.818-24.869-6.414-34.654
	C735.195,411.044,739.462,403.23,739.462,394.549z M492.054,573.093c-4.409,0-7.983-3.752-7.983-8.379s3.574-8.378,7.983-8.378
	c4.409,0,7.984,3.751,7.984,8.378S496.463,573.093,492.054,573.093z M492.054,496.988c-4.409,0-7.983-3.751-7.983-8.379
	s3.574-8.378,7.983-8.378c4.409,0,7.984,3.75,7.984,8.378S496.463,496.988,492.054,496.988z M492.054,431.126
	c-4.409,0-7.983-3.751-7.983-8.378c0-4.627,3.574-8.378,7.983-8.378c4.409,0,7.984,3.751,7.984,8.378
	C500.038,427.375,496.463,431.126,492.054,431.126z M573.471,573.093c-4.41,0-7.984-3.752-7.984-8.379s3.574-8.378,7.984-8.378
	c4.408,0,7.982,3.751,7.982,8.378S577.879,573.093,573.471,573.093z M573.471,496.988c-4.41,0-7.984-3.751-7.984-8.379
	c0-4.627,3.574-8.378,7.984-8.378c4.408,0,7.982,3.751,7.982,8.378C581.454,493.236,577.879,496.988,573.471,496.988z
	 M573.471,431.126c-4.41,0-7.984-3.751-7.984-8.378c0-4.627,3.574-8.378,7.984-8.378c4.408,0,7.982,3.751,7.982,8.378
	C581.454,427.375,577.879,431.126,573.471,431.126z M653.432,573.093c-4.409,0-7.982-3.752-7.982-8.379s3.573-8.378,7.982-8.378
	c4.408,0,7.983,3.751,7.983,8.378S657.84,573.093,653.432,573.093z M643.817,488.609c0-4.627,3.574-8.378,7.982-8.378
	c4.41,0,7.984,3.75,7.984,8.378s-3.574,8.379-7.984,8.379C647.391,496.988,643.817,493.236,643.817,488.609z M653.432,431.126
	c-4.409,0-7.982-3.751-7.982-8.378c0-4.627,3.573-8.378,7.982-8.378c4.408,0,7.983,3.751,7.983,8.378
	C661.416,427.375,657.84,431.126,653.432,431.126z"/>
</svg>
