<?xml version="1.0" encoding="utf-8"?>
<!-- Generator: Adobe Illustrator 16.0.0, SVG Export Plug-In . SVG Version: 6.00 Build 0)  -->
<!DOCTYPE svg PUBLIC "-//W3C//DTD SVG 1.1//EN" "http://www.w3.org/Graphics/SVG/1.1/DTD/svg11.dtd">
<svg version="1.1" id="图形" xmlns="http://www.w3.org/2000/svg" xmlns:xlink="http://www.w3.org/1999/xlink" x="0px" y="0px"
	 width="1000.637px" height="1000.678px" viewBox="15.167 -16.333 1000.637 1000.678"
	 enable-background="new 15.167 -16.333 1000.637 1000.678" xml:space="preserve">
<g>
	<path d="M586.798,644.065l-55.87,54.861l0.106,0.168l-0.637,0.353l-6.013,5.904l-1.775-1.589l-1.177,0.651l-2.466-3.91
		l-2.649-2.371l0.713-0.7l-44.372-70.378l-66.095,35.555c15.604,47.145,37.677,108.23,47.291,108.23h124.307l28.508-101.826
		L586.798,644.065z"/>
	<path d="M615.328,157.509c-92.51-10.031-164.51,143.7-160.586,205.488c-23.948-17.04-43.154-18.066-66.993-7.95
		c-39.622,16.813-52.17,70.969-28.028,120.962c15.513,32.123,42.399,67.866,70.15,84.856h-12.016
		c-15.655,0-28.347,21.491-28.347,48.001c0,0,5.638,18.755,13.693,43.499l72.733-39.126l2.221,3.627l0.766-0.424l46.111,73.133
		l62.01-60.888l3.832,3.43l0.209-0.146l0.924,1.159l3.102,2.776l-0.5,0.49l15.681,19.687l13.219-47.217
		c0-26.51-12.691-48.001-28.347-48.001h-20.311c53.601-29.843,103.23-160.834,107.342-200.467
		C686.979,314.256,707.837,167.54,615.328,157.509z"/>
</g>
<rect x="586.109" y="138.544" transform="matrix(0.9688 -0.2479 0.2479 0.9688 -20.551 150.8811)" fill="#FFFFFF" width="5.418" height="36.993"/>
<rect x="363.669" y="366.951" transform="matrix(0.5935 -0.8048 0.8048 0.5935 -156.4168 447.9843)" fill="#FFFFFF" width="3.221" height="23.776"/>
<rect x="576.11" y="358.599" transform="matrix(0.9114 0.4115 -0.4115 0.9114 203.6112 -204.8947)" fill="#FFFFFF" width="3.222" height="23.777"/>
<rect x="676.547" y="366.88" transform="matrix(0.5059 0.8626 -0.8626 0.5059 661.8298 -397.8253)" fill="#FFFFFF" width="3.222" height="23.777"/>
<rect x="685.965" y="314.06" transform="matrix(0.5059 0.8626 -0.8626 0.5059 620.9205 -432.0493)" fill="#FFFFFF" width="3.222" height="23.777"/>
<rect x="594.417" y="264.751" transform="matrix(0.9809 -0.1943 0.1943 0.9809 -42.3935 121.086)" fill="#FFFFFF" width="3.222" height="23.777"/>
<rect x="657.53" y="175.717" transform="matrix(0.9051 0.4251 -0.4251 0.9051 142.2894 -262.4245)" fill="#FFFFFF" width="3.222" height="23.777"/>
<rect x="506.734" y="221.236" transform="matrix(0.6464 -0.763 0.763 0.6464 1.8657 470.2742)" fill="#FFFFFF" width="3.222" height="23.777"/>
<rect x="529.915" y="443.934" transform="matrix(0.8336 -0.5523 0.5523 0.8336 -159.8118 368.3461)" fill="#FFFFFF" width="3.221" height="11.034"/>
<rect x="538.692" y="507.612" transform="matrix(0.8336 -0.5523 0.5523 0.8336 -193.5223 383.788)" fill="#FFFFFF" width="3.221" height="11.033"/>
<rect x="598.305" y="440.069" transform="matrix(0.7447 0.6674 -0.6674 0.7447 450.5488 -286.6264)" fill="#FFFFFF" width="3.222" height="11.034"/>
<rect x="466.818" y="478.488" transform="matrix(0.8336 -0.5523 0.5523 0.8336 -189.3939 339.2452)" fill="#FFFFFF" width="3.221" height="11.034"/>
<rect x="498.707" y="333.321" transform="matrix(0.8336 -0.5523 0.5523 0.8336 -103.9104 332.707)" fill="#FFFFFF" width="3.221" height="11.034"/>
<rect x="661.505" y="276.76" transform="matrix(0.8873 0.4611 -0.4611 0.8873 204.8621 -273.9658)" fill="#FFFFFF" width="3.221" height="11.034"/>
<rect x="439.207" y="375.301" transform="matrix(0.5999 -0.8001 0.8001 0.5999 -133.4094 507.5995)" fill="#FFFFFF" width="3.222" height="23.776"/>
<rect x="353.144" y="437.563" transform="matrix(0.1923 0.9813 -0.9813 0.1923 727.5873 14.8781)" fill="#FFFFFF" width="3.222" height="23.776"/>
</svg>
