<?xml version="1.0" encoding="utf-8"?>
<!-- Generator: Adobe Illustrator 16.0.0, SVG Export Plug-In . SVG Version: 6.00 Build 0)  -->
<!DOCTYPE svg PUBLIC "-//W3C//DTD SVG 1.1//EN" "http://www.w3.org/Graphics/SVG/1.1/DTD/svg11.dtd">
<svg version="1.1" id="图形" xmlns="http://www.w3.org/2000/svg" xmlns:xlink="http://www.w3.org/1999/xlink" x="0px" y="0px"
	 width="1000.637px" height="1000.678px" viewBox="15.167 -16.333 1000.637 1000.678"
	 enable-background="new 15.167 -16.333 1000.637 1000.678" xml:space="preserve">
<path d="M691.804,429.762l-24.107-21.864v-18.406c0-31.94-25.894-57.834-57.835-57.834h-26.228l-31.332-28.417
	c-23.66-21.458-60.236-19.673-81.693,3.986l-22.157,24.43h-26.92c-31.941,0-57.835,25.894-57.835,57.834v35.619l-28.519,31.445
	c-21.457,23.659-19.673,60.235,3.987,81.693l24.532,22.249v30.589c0,31.939,25.894,57.834,57.835,57.834h39.661l17.475,15.848
	c23.66,21.459,60.236,19.673,81.693-3.985l10.759-11.862h38.742c31.941,0,57.835-25.895,57.835-57.834v-48.652l28.095-30.979
	C717.25,487.797,715.463,451.222,691.804,429.762z M517.911,573.503c-47.063,0-85.214-38.15-85.214-85.213
	s38.151-85.214,85.214-85.214s85.214,38.151,85.214,85.214S564.973,573.503,517.911,573.503z"/>
</svg>
