<?xml version="1.0" encoding="utf-8"?>
<!-- Generator: Adobe Illustrator 16.0.0, SVG Export Plug-In . SVG Version: 6.00 Build 0)  -->
<!DOCTYPE svg PUBLIC "-//W3C//DTD SVG 1.1//EN" "http://www.w3.org/Graphics/SVG/1.1/DTD/svg11.dtd">
<svg version="1.1" id="图形" xmlns="http://www.w3.org/2000/svg" xmlns:xlink="http://www.w3.org/1999/xlink" x="0px" y="0px"
	 width="1000.637px" height="1000.678px" viewBox="15.167 -16.333 1000.637 1000.678"
	 enable-background="new 15.167 -16.333 1000.637 1000.678" xml:space="preserve">
<path d="M679.485,495.89c0-3.999-0.169-7.962-0.495-11.884H351.98c-0.327,3.921-0.496,7.885-0.496,11.884
	c0,61.653,39.544,114.738,96.39,138.628c-0.293,0.985-0.456,2.026-0.456,3.107c0,6.012,4.873,10.885,10.885,10.885h123.572
	c6.012,0,10.885-4.873,10.885-10.885c0-2.433-0.809-4.672-2.157-6.484C643.391,605.866,679.485,554.79,679.485,495.89z"/>
<path d="M851.596,310.099c7.504,20.426,2.991,27.079,2.991,27.079l-420.783,31.984l-0.563-5.097
	C433.241,364.065,825.513,312.337,851.596,310.099z"/>
<path d="M892.893,354.598c6.017,20.912,1.037,27.224,1.037,27.224l-421.993,1.662l-0.197-5.125
	C471.74,378.359,866.716,354.954,892.893,354.598z"/>
</svg>
