<?xml version="1.0" encoding="utf-8"?>
<!-- Generator: Adobe Illustrator 16.0.0, SVG Export Plug-In . SVG Version: 6.00 Build 0)  -->
<!DOCTYPE svg PUBLIC "-//W3C//DTD SVG 1.1//EN" "http://www.w3.org/Graphics/SVG/1.1/DTD/svg11.dtd">
<svg version="1.1" id="图形" xmlns="http://www.w3.org/2000/svg" xmlns:xlink="http://www.w3.org/1999/xlink" x="0px" y="0px"
	 width="1000.637px" height="1000.678px" viewBox="15.167 -16.333 1000.637 1000.678"
	 enable-background="new 15.167 -16.333 1000.637 1000.678" xml:space="preserve">
<g>
	<path d="M155.717,636.306c67.485-63.482,139.913-96.108,161.771-72.872c6.266,6.661,7.688,17.194,4.951,30.32
		c11.951-2.019,24.463-3.096,37.351-3.096c81.205,0,147.545,42.571,151.914,96.181c5.779-52.773,72.267-94.334,153.389-94.231
		c14.215,0.019,27.973,1.32,41.035,3.729c-4.549-14.535-4.089-26.395,2.327-33.992c20.583-24.374,94.653,4.326,165.441,64.104
		c0.294,0.248,0.582,0.497,0.875,0.745c-0.369-25.545-5.295-32.134-4.114-34.402C833.81,433.725,760.044,309.898,693.123,284.8
		c-0.046,0.424,2.369,4.615,2.123,9.881c-0.223,4.77-1.98,9.615-3.328,11.972c-8.128,12.946-28.707,22.14-52.815,22.14
		c-31.222,0-56.532-15.419-56.532-34.439c0-1.542,0.169-3.06,0.491-4.548h-1.141v-24.042v-31.19l-42.268,31.19h-61.689
		l-36.713-29.241l-0.984,29.241v24.042h-0.705c-0.781,18.605-25.784,33.541-56.513,33.541c-1.12,0-2.229-0.027-3.334-0.066
		c-0.439-0.06-0.852-0.134-1.204-0.23c-0.114,0.07-0.147,0.129-0.149,0.176c-2.267-0.113-4.493-0.312-6.676-0.583
		c-2.48-0.354-4.827-0.786-6.114-1.108c-3.063-0.428-8.192-1.962-8.192-1.962s-0.136-0.033-0.373-0.094
		c-3.063-0.971-5.957-2.11-8.659-3.393c-0.378-0.253-0.716-0.516-0.99-0.787c-0.063-0.035-0.125-0.068-0.188-0.108
		c-3.484-1.51-6.345-3.287-8.687-5.109c-0.11-0.086-0.221-0.171-0.329-0.258c-7.033-5.602-9.186-11.549-9.186-11.549
		c-0.559-0.71-3.292-6.936-3.919-8.13c-0.121-0.229-0.201-0.474-0.26-0.722c-72.887,5.606-147.452,155.666-169.922,346.865
		c0.086,0.194,0.174,0.385,0.261,0.578C155.324,636.68,155.519,636.492,155.717,636.306z"/>
</g>
</svg>
