<?xml version="1.0" encoding="utf-8"?>
<!-- Generator: Adobe Illustrator 16.0.0, SVG Export Plug-In . SVG Version: 6.00 Build 0)  -->
<!DOCTYPE svg PUBLIC "-//W3C//DTD SVG 1.1//EN" "http://www.w3.org/Graphics/SVG/1.1/DTD/svg11.dtd">
<svg version="1.1" id="图形" xmlns="http://www.w3.org/2000/svg" xmlns:xlink="http://www.w3.org/1999/xlink" x="0px" y="0px"
	 width="1000.637px" height="1000.678px" viewBox="15.167 -16.333 1000.637 1000.678"
	 enable-background="new 15.167 -16.333 1000.637 1000.678" xml:space="preserve">
<path d="M617.818,627.839l19-28h-222l23,28h19.423l51.749,99h-45.172l37,80h63l26-80h-43.731l56.088-99H617.818z M466.268,627.839
	h53.21l3.777,99h-5.239L466.268,627.839z M536.893,726.839h-5.633l-3.777-99h65.498L536.893,726.839z"/>
<path d="M779.724,243.348C748.818,144.839,626.082,95.147,522.063,92.845c-108.785-2.407-215.458,65.518-253.647,147.872
	c0,0,128.402,38.122,162.402-26.878c17.331-3.907,73.309,84.766,132.154,28.883c0,0,68.846,45.117,88.846,2.117
	C651.818,244.839,766.63,283.857,779.724,243.348z"/>
<g>
	<path d="M662.818,407.844c-62,42-97.333-8-97.333-8c-37.87,44.024-87.328,11.415-112.829-11.197l-17.72-13.508l-16.283,14.452
		c-41.26,31.867-104.796,20.844-138.369,11.69c29.546,65.68,79.819,140.049,131.629,191.558h227.684
		c53.783-48.349,107.161-116.684,137.855-178.334C734.77,435.108,662.818,407.844,662.818,407.844z"/>
	<path d="M792.722,379.207c0,0,34.096-84.368-5.908-122.414c-15.81,12.003-38.199,14.49-59.621,13.045
		c-33.375-2.25-64.375-14-64.375-14c-18.449,12.498-34.537,16.849-48.035,16.796c-31.864-0.125-49.298-24.796-49.298-24.796
		c-22.571,26.239-49.263,25.253-72.544,15.387c-31.729-13.446-57.123-43.387-57.123-43.387c-21.634,29.956-56.098,38.83-88.97,38.98
		c-33.597,0.154-65.526-8.805-80.406-13.688c-10.911,25.302-15.33,51.856-11.354,78.072c3.123,20.597,10.785,44.687,21.788,70.322
		c0,0,132.371,26.448,153.157-29.119c0,0,94.786,92.433,134.539,17.383c19.248,22.914,34.359,40.662,98.244,16.117
		C662.815,397.906,782.401,446.746,792.722,379.207z"/>
</g>
</svg>
