<?xml version="1.0" encoding="utf-8"?>
<!-- Generator: Adobe Illustrator 16.0.0, SVG Export Plug-In . SVG Version: 6.00 Build 0)  -->
<!DOCTYPE svg PUBLIC "-//W3C//DTD SVG 1.1//EN" "http://www.w3.org/Graphics/SVG/1.1/DTD/svg11.dtd">
<svg version="1.1" id="图形" xmlns="http://www.w3.org/2000/svg" xmlns:xlink="http://www.w3.org/1999/xlink" x="0px" y="0px"
	 width="1000.637px" height="1000.678px" viewBox="0 0 1000.637 1000.678" enable-background="new 0 0 1000.637 1000.678"
	 xml:space="preserve">
<path stroke="#000000" stroke-miterlimit="10" d="M724.818,274.841c0,24.99-27.758,45.25-62,45.25s-62-20.26-62-45.25h-0.008
	v-47.727l-1.455-34.007l-34.178,34.007h-68.902l-35.087-32.483l-1.455,32.484v47.726h-0.04c0.075,0.911,0.125,1.826,0.125,2.75
	c0,24.99-27.758,45.25-62,45.25c-34.241,0-62-20.26-62-45.25c0-0.924,0.051-1.839,0.125-2.75H6.818v11.9
	c13.274,1.722,26.771,4.393,40.335,8.071c109.539,29.703,182.115,113.607,162.104,187.404c-1.072,3.952-2.401,7.787-3.948,11.517
	c11.299-0.414,22.777-0.473,34.407-0.129c155.577,4.589,280.822,77.066,288.189,164.234h3.546
	c7.036-95.999,139.023-169.312,298.427-164.608c9.064,0.269,18.02,0.795,26.859,1.544c-5.106-15.313-7.495-31.352-6.75-47.793
	c3.893-85.928,91.823-153.238,202.83-160.576v-11.564H724.818z"/>
</svg>
