<?xml version="1.0" encoding="utf-8"?>
<!-- Generator: Adobe Illustrator 16.0.0, SVG Export Plug-In . SVG Version: 6.00 Build 0)  -->
<!DOCTYPE svg PUBLIC "-//W3C//DTD SVG 1.1//EN" "http://www.w3.org/Graphics/SVG/1.1/DTD/svg11.dtd">
<svg version="1.1" id="图形" xmlns="http://www.w3.org/2000/svg" xmlns:xlink="http://www.w3.org/1999/xlink" x="0px" y="0px"
	 width="1000.637px" height="1000.678px" viewBox="0 0 1000.637 1000.678" enable-background="new 0 0 1000.637 1000.678"
	 xml:space="preserve">
<path d="M698.818,346.839c4.367,13.101-5.385,64.757-22.632,129.424c-3.266,12.247-79.56,1.965-79.56,1.965l-0.684,15.648
	c0,0,53.899,8.532,73.388,9.747c14.543,0.893-76.9,259.537-145.568,316.344c-10.931-1.345-87.154-152.485-87.154-152.485
	l49.297-0.121l-0.353-21.836c0,0-32.942,4.245-55.838,0.779c-1.293-1.572-71.359-165.623-77.326-203.359
	c33.532-1.225,128.506-4.969,123.173-1.697l0.097-21.357l-124.506,0.053c0,0-16.335-62.243-16.335-73.104l0,0
	c0-51.915,42.085-94,94-94h176C656.733,252.839,698.818,294.924,698.818,346.839L698.818,346.839z"/>
<path d="M413.316,139.839c26.405,0,73.902,47.009,73.902,47.009l42.396-39.354l47.214,31.628c0,0,24.077-12.124,42.649-24.896
	c10.901,15.036-1.322,78.965-34.815,88.117c-33.495,9.152-103.125,3.772-103.125,3.772s-16.045,4.401-43.208-20.761"/>
</svg>
