<?xml version="1.0" encoding="utf-8"?>
<!-- Generator: Adobe Illustrator 16.0.0, SVG Export Plug-In . SVG Version: 6.00 Build 0)  -->
<!DOCTYPE svg PUBLIC "-//W3C//DTD SVG 1.1//EN" "http://www.w3.org/Graphics/SVG/1.1/DTD/svg11.dtd">
<svg version="1.1" id="图形" xmlns="http://www.w3.org/2000/svg" xmlns:xlink="http://www.w3.org/1999/xlink" x="0px" y="0px"
	 width="1000.637px" height="1000.678px" viewBox="15.167 -16.333 1000.637 1000.678"
	 enable-background="new 15.167 -16.333 1000.637 1000.678" xml:space="preserve">
<polygon points="768.665,504.564 744.21,466.081 768.25,427.336 739.699,409.622 747.691,376.987 707.32,367.1 698.935,323.954 
	658.849,331.744 637.226,297.717 598.743,322.17 559.998,298.132 542.285,326.683 509.65,318.691 498.837,362.841 460.938,370.206 
	467.775,405.391 430.38,429.154 454.833,467.636 430.796,506.38 459.347,524.094 451.354,556.73 499.477,568.515 507.19,608.206 
	540.093,601.812 561.818,636 600.302,611.546 639.046,635.583 656.759,607.033 689.394,615.026 700.253,570.687 745.187,561.954 
	737.84,524.151 "/>
<circle fill="#FFFFFF" cx="597.568" cy="472.589" r="68.25"/>
</svg>
