<?xml version="1.0" encoding="utf-8"?>
<!-- Generator: Adobe Illustrator 16.0.0, SVG Export Plug-In . SVG Version: 6.00 Build 0)  -->
<!DOCTYPE svg PUBLIC "-//W3C//DTD SVG 1.1//EN" "http://www.w3.org/Graphics/SVG/1.1/DTD/svg11.dtd">
<svg version="1.1" id="图形" xmlns="http://www.w3.org/2000/svg" xmlns:xlink="http://www.w3.org/1999/xlink" x="0px" y="0px"
	 width="1000.637px" height="1000.678px" viewBox="15.167 -16.333 1000.637 1000.678"
	 enable-background="new 15.167 -16.333 1000.637 1000.678" xml:space="preserve">
<path d="M900.868,285.192c-9.407-36.948-59.981-61.438-112.959-54.699l-140.857,22.782
	c-47.259-16.559-275.487-95.907-296.658-91.356c-23.629,5.08-92.383,32.92-67.005,58.057c11.742,11.63,85.638,39.441,161.66,65.971
	l-168.493,27.251L174.27,241.64l-83.686,59.764l68.426,46.16l-34.243,21.677l23.529,18.568l36.304-22.982l25.901,17.473
	c9.113,11.305,34.932,34.007,97.355,38.291c36.66,2.516,139.641-7.944,243.897-20.508c-14.531,60.208-25.661,121.291-12.352,125.787
	c26.731,9.03,68.155,10.037,68.155,10.037c14.559,2.144,28.873-4.664,31.982-15.209l40.349-136.874
	c80.808-10.694,142.087-19.529,142.087-19.529C874.953,357.555,910.276,322.14,900.868,285.192z"/>
</svg>
