<?xml version="1.0" encoding="utf-8"?>
<!-- Generator: Adobe Illustrator 16.0.0, SVG Export Plug-In . SVG Version: 6.00 Build 0)  -->
<!DOCTYPE svg PUBLIC "-//W3C//DTD SVG 1.1//EN" "http://www.w3.org/Graphics/SVG/1.1/DTD/svg11.dtd">
<svg version="1.1" id="图形" xmlns="http://www.w3.org/2000/svg" xmlns:xlink="http://www.w3.org/1999/xlink" x="0px" y="0px"
	 width="1000.637px" height="1000.678px" viewBox="15.167 -16.333 1000.637 1000.678"
	 enable-background="new 15.167 -16.333 1000.637 1000.678" xml:space="preserve">
<path d="M626.294,464.844l21.032-286.782l-9.604,1.96c-13.539,2.152-204.325,32.48-240.261,38.586l-6.211,0.576l-19.991,265.02
	c-8.447-4.194-19.504-7.229-31.762-8.278c-27.863-2.384-51.366,6.39-52.496,19.597c-1.129,13.206,20.541,25.845,48.403,28.229
	c25.939,2.218,48.088-5.234,51.938-16.929l0.063,0.026c0.04-0.096,0.066-0.196,0.111-0.289c0.069-0.308,0.18-0.606,0.313-0.896
	c0.067-0.509,0.226-0.995,0.421-1.468l13.667-187.03l219.994-35.446l-12.261,164.281c-8.944-3.875-20.787-6.274-33.794-6.354
	c-27.964-0.17-50.697,10.437-50.778,23.692c-0.081,13.254,22.522,24.137,50.487,24.308c26.05,0.158,47.553-9.037,50.44-21.012
	l0.05,0.004c0.034-0.11,0.086-0.212,0.128-0.319l0.079-1.079C626.281,465.111,626.284,464.977,626.294,464.844z M403.266,298.736
	l4.659-63.757l220.103-35.177l-4.76,63.773L403.266,298.736z"/>
</svg>
