<?xml version="1.0" encoding="utf-8"?>
<!-- Generator: Adobe Illustrator 16.0.0, SVG Export Plug-In . SVG Version: 6.00 Build 0)  -->
<!DOCTYPE svg PUBLIC "-//W3C//DTD SVG 1.1//EN" "http://www.w3.org/Graphics/SVG/1.1/DTD/svg11.dtd">
<svg version="1.1" id="图形" xmlns="http://www.w3.org/2000/svg" xmlns:xlink="http://www.w3.org/1999/xlink" x="0px" y="0px"
	 width="1000.637px" height="1000.678px" viewBox="15.167 -16.333 1000.637 1000.678"
	 enable-background="new 15.167 -16.333 1000.637 1000.678" xml:space="preserve">
<g>
	<polygon points="561.636,680.318 574.716,680.318 574.716,635.927 578.078,637.609 561.636,616.991 	"/>
	<polygon points="588.716,680.318 612.138,680.318 588.716,650.947 	"/>
	<polygon points="499.716,680.318 499.716,655.818 479.252,680.318 	"/>
	<polygon points="513.716,680.318 522.716,680.318 522.716,628.281 513.716,639.056 	"/>
	<polygon points="536.716,611.519 536.716,680.318 547.636,680.318 547.636,600.927 549.615,601.915 547.232,598.929 	"/>
	<path d="M713.121,423.313c0.531-3.271,0.49-6.683-0.199-10.244c-9.381-172.445-101.525-175.043-148.451-173.041l-5.941,136.554
		l0.691-136.31c-6.883,0.336-12.494,0.627-16.316,0.204c-2.867-0.317-5.738-0.583-8.605-0.803l-5.957,136.909l0.697-137.252
		c-66.175-3.518-130.53,23.305-147.354,168.883c-0.467,4.037-0.215,7.892,0.664,11.572
		c-34.284,37.973-158.322,188.063-63.663,276.319l0.994-1.645c-0.721,0.158-1.444,0.309-2.163,0.473
		c4.254-19.869,9.805-40.773,16.664-62.158c30.482-95.021,76.41-167.583,109.202-176.299
		c-30.182,24.427-65.979,87.674-91.202,166.299c-3.76,11.723-7.123,23.297-10.1,34.641l0.066-0.109
		c13.02-5.477,73.966-29.582,77.55-2.516c18.874,26.211,24.528,37.256,25.803,39.986c-2.043,3.217-3.243,7.021-3.243,11.115
		c0,11.48,9.307,20.787,20.788,20.787c7.567,0,14.17-4.057,17.806-10.102l61.139,36.803l65.891-37.16
		c3.686,5.807,10.156,9.672,17.545,9.672c11.48,0,20.787-9.307,20.787-20.787c0-5.047-1.801-9.67-4.791-13.27l21.338-47.652
		c18.217-10.963,48.553-8.906,66.453-6.389l2.75,5.166c-0.807-2.57-1.623-5.146-2.469-7.734
		c-25.637-78.49-61.77-141.547-92.078-165.815c32.838,8.542,79.148,80.862,110.131,175.719
		c6.359,19.473,11.615,38.539,15.801,56.803l3.244,6.096C869.103,660.458,734.521,454.798,713.121,423.313z M543.429,516.698
		c9.275,0,16.348,5.297,20.801,9.994c-0.098,0.203-0.193,0.406-0.289,0.611c-5.211-3.693-12.984-6.04-21.676-6.04
		c-7.652,0-14.592,1.821-19.701,4.777c-0.191-0.147-0.404-0.257-0.625-0.341C527.181,521.24,534.804,516.698,543.429,516.698z
		 M564.23,539.601c-0.098,0.203-0.193,0.406-0.289,0.611c-5.211-3.693-12.984-6.039-21.676-6.039c-7.652,0-14.592,1.82-19.701,4.777
		c-0.191-0.148-0.404-0.258-0.625-0.342c5.242-4.461,12.865-9.002,21.49-9.002C552.705,529.607,559.777,534.904,564.23,539.601z
		 M433.552,421.962c-38.016,10.018-78.819,68.598-78.819,68.598s36.285-63.826,79.299-75.162
		c25.184-6.637,53.609,7.897,72.853,21.089c-1.641,0.313-3.449,0.588-5.287,0.922C481.563,426.909,454.524,416.435,433.552,421.962z
		 M457.301,462.82c0,0,62.789,18.792,71.349,48.566c-33.235,6.932-51.701,4.502-51.701,4.502
		c-29.162-5.938-33.675-12.331-35.492-19.861C436.68,473.287,457.301,462.82,457.301,462.82z M422.828,529.261l12.706,26.434
		l71.005-24.232l1.396,4.092l-70.515,24.064l29.125,60.594l-3.896,1.873l-43.717-90.951L422.828,529.261z M461.816,720.628
		c-6.907,0-12.507-5.6-12.507-12.508c0-6.906,5.6-12.506,12.507-12.506s12.506,5.6,12.506,12.506
		C474.322,715.029,468.724,720.628,461.816,720.628z M595.695,703.777h-100l-5-5.344h114L595.695,703.777z M627.425,719.613
		c-6.908,0-12.508-5.6-12.508-12.508c0-6.906,5.6-12.506,12.508-12.506c6.906,0,12.506,5.6,12.506,12.506
		C639.931,714.013,634.332,719.613,627.425,719.613z M632.24,686.484l-3.691-2.141l2.627,3.293H458.216l2.606-3.121l-4.88,3.121
		l-40.901-74.938l46.3,71.197l72.081-86.301c-0.789-1.639-1.246-3.471-1.246-5.414c0-6.906,5.6-12.508,12.508-12.508
		c6.906,0,12.506,5.602,12.506,12.508c0,0.816-0.084,1.615-0.234,2.389l70.061,87.852l42.848-72.572L632.24,686.484z
		 M658.617,531.855l3.846,2.975l-46.125,89.756l-3.844-2.977l30.297-58.957l-69.418-25.773l1.506-4.053l69.902,25.953
		L658.617,531.855z M642.496,502.062c-2.242,7.415-7.109,13.541-36.563,17.815c0,0-18.574,1.377-51.361-7.43
		c10.236-29.241,73.99-44.438,73.99-44.438S648.556,479.63,642.496,502.062z M650.113,422.476
		c-21.428-3.356-47.256,9.825-66.111,22.318c-1.861-0.145-3.689-0.233-5.354-0.377c17.795-15.088,44.588-32.451,70.318-28.421
		c43.945,6.882,86.561,66.667,86.561,66.667S688.953,428.557,650.113,422.476z"/>
</g>
</svg>
