<?xml version="1.0" encoding="utf-8"?>
<!-- Generator: Adobe Illustrator 16.0.0, SVG Export Plug-In . SVG Version: 6.00 Build 0)  -->
<!DOCTYPE svg PUBLIC "-//W3C//DTD SVG 1.1//EN" "http://www.w3.org/Graphics/SVG/1.1/DTD/svg11.dtd">
<svg version="1.1" id="图形" xmlns="http://www.w3.org/2000/svg" xmlns:xlink="http://www.w3.org/1999/xlink" x="0px" y="0px"
	 width="1000.637px" height="1000.678px" viewBox="15.167 -16.333 1000.637 1000.678"
	 enable-background="new 15.167 -16.333 1000.637 1000.678" xml:space="preserve">
<path d="M525.728,595.082V416.227c0-9.638-3.581-17.452-8-17.452c-4.417,0-7.999,7.814-7.999,17.452v179.325
	c-24.401,4.484-42.894,25.847-42.894,51.547c0,28.952,23.471,52.422,52.428,52.422c28.952,0,52.423-23.47,52.423-52.422
	C571.686,620.332,551.627,598.27,525.728,595.082z"/>
<path d="M546.636,578.732V180.766c0-16.099-13.051-29.15-29.15-29.15s-29.15,13.052-29.15,29.15v397.968
	c-26.666,11.345-45.371,37.762-45.371,68.57c0,41.156,33.364,74.521,74.521,74.521c41.156,0,74.521-33.364,74.521-74.521
	C592.006,616.496,573.302,590.076,546.636,578.732z M518.835,706.85c-32.887,0-59.547-26.66-59.547-59.546
	c0-27.972,19.291-51.427,45.291-57.816v-1.607c0.377-0.094,0.75-0.195,1.131-0.282c-0.725-3.378-1.131-7.115-1.131-11.052v-2.627
	V190.797c0-15.011,5.854-27.181,13.074-27.181s13.074,12.17,13.074,27.181v383.186c-0.048-0.009-0.095-0.021-0.143-0.028v6.391
	c-0.16,2.377-0.454,4.665-0.89,6.803c0.299,0.057,0.593,0.125,0.89,0.186v1.589c27.258,5.456,47.796,29.519,47.796,58.382
	C578.381,680.19,551.721,706.85,518.835,706.85z"/>
</svg>
