<?xml version="1.0" encoding="utf-8"?>
<!-- Generator: Adobe Illustrator 16.0.0, SVG Export Plug-In . SVG Version: 6.00 Build 0)  -->
<!DOCTYPE svg PUBLIC "-//W3C//DTD SVG 1.1//EN" "http://www.w3.org/Graphics/SVG/1.1/DTD/svg11.dtd">
<svg version="1.1" id="图形" xmlns="http://www.w3.org/2000/svg" xmlns:xlink="http://www.w3.org/1999/xlink" x="0px" y="0px"
	 width="1000.637px" height="1000.678px" viewBox="15.167 -16.333 1000.637 1000.678"
	 enable-background="new 15.167 -16.333 1000.637 1000.678" xml:space="preserve">
<path d="M741.252,283.84c0.013-0.048,0.02-0.098,0.034-0.145c-0.167-0.006-0.33-0.025-0.495-0.039
	c-0.608-0.243-1.215-0.487-1.829-0.729c-0.082,0.087-0.163,0.176-0.246,0.262c-0.045,0.216-0.114,0.432-0.2,0.646
	c-29.933,18.5-49.61,49.753-49.61,85.206c0,35.672,19.917,67.099,50.161,85.554c0.562-0.167,1.114-0.357,1.661-0.558
	c0.129,0.065,0.255,0.135,0.368,0.218c54.295-21.809,115.896-51.942,115.896-85.236C856.993,335.755,795.458,305.644,741.252,283.84
	z M760.485,361.506c-8.652,0-15.667-7.014-15.667-15.667c0-8.652,7.015-15.667,15.667-15.667s15.667,7.014,15.667,15.667
	C776.152,354.491,769.137,361.506,760.485,361.506z"/>
<g>
	<path d="M523.48,279.9c0.12-0.108,0.248-0.204,0.375-0.302c-1.006-0.325-1.995-0.648-2.963-0.969
		c-0.137,0.034-0.271,0.07-0.408,0.104C521.496,279.068,522.492,279.466,523.48,279.9z"/>
	<path d="M641.109,267.965c5.781,0.104,11.208,0.209,16.383,0.325c0.005-0.101,0.019-0.201,0.03-0.301
		c-18.364-8.854-60.116-25.856-108.272-24.848c-55.939-1.094-111.014,8.142-28.357,35.489
		C557.737,269.506,598.434,264.572,641.109,267.965z"/>
</g>
<g>
	<path d="M733.365,458.729c-8.862-2.972-17.221-11.885-22.85-18.263c-11.895-13.483-19.077-29.836-23.237-47.969
		c-2.302-10.031-4.307-20.208-3.183-30.595c1.082-10,3.523-19.501,7.089-28.779c6.776-17.635,17.083-34.864,30.879-46.893
		c0.757-0.911,1.581-1.728,2.467-2.42c1.164-2.205,2.613-4.195,4.442-5.801c0.524-0.46,1.071-0.795,1.624-1.031
		c0.059-0.099,0.108-0.205,0.168-0.303c-25.515-2.291-47.287-2.946-80.179-3.534c-126.375-10.049-235.459,52.846-278.187,81.685
		c-33.844-19.086-87.104-46.609-102.354-40.131c-14.874,6.318-3.179,25.923,6.831,38.876c-11.507,8.745-41.086,33.675-23.112,46.658
		c15.194,10.974,79.654-6.697,118.205-18.724c29.671,18.837,92.461,53.746,174.186,71.624c12.685-6.676,29.015-12.809,49.336-17.309
		c45.301-19.166,34.431-54.012,51.107-54.012c16.683,0,9.294,6.861,9.294,54.012c0,11.141-6.165,20.549-15.896,28.417
		c3.513,0.058,7.038,0.091,10.59,0.066c27.565,1.203,56.546-1.33,82.852-3.778C733.422,459.925,733.388,459.327,733.365,458.729z"/>
	<path d="M547.465,453.8c0.243-0.086-0.635-0.523-1.311-0.671C545.358,453.548,546.248,453.975,547.465,453.8z"/>
</g>
<path d="M654.019,436.611c-0.491,41.786-98.45,54.952-120.061,54.185c-21.612-0.767-5.712-39.703,66.533-54.813
	c40.344-16.514,31.073-47.509,45.853-47.335C661.127,388.821,654.51,394.824,654.019,436.611z"/>
</svg>
