<?xml version="1.0" encoding="utf-8"?>
<!-- Generator: Adobe Illustrator 16.0.0, SVG Export Plug-In . SVG Version: 6.00 Build 0)  -->
<!DOCTYPE svg PUBLIC "-//W3C//DTD SVG 1.1//EN" "http://www.w3.org/Graphics/SVG/1.1/DTD/svg11.dtd">
<svg version="1.1" id="图形" xmlns="http://www.w3.org/2000/svg" xmlns:xlink="http://www.w3.org/1999/xlink" x="0px" y="0px"
	 width="1000.637px" height="1000.678px" viewBox="15.167 -16.333 1000.637 1000.678"
	 enable-background="new 15.167 -16.333 1000.637 1000.678" xml:space="preserve">
<path d="M738.778,216.865c-16.189-47.152-73.831-82.026-142.46-82.026c-21.107,0-41.17,3.305-59.313,9.245
	c-21.748-9.698-46.965-15.245-73.854-15.245c-70.018,0-128.697,37.614-144.274,88.199c-84.839,3.266-152.06,48.039-152.06,102.801
	c0,56.885,72.53,103,162,103c12.198,0,24.079-0.863,35.506-2.488c31.04,16.292,75.325,26.488,124.494,26.488
	c68.019,0,126.696-19.506,153.874-47.683c27.961,4.942,58.763,7.683,91.126,7.683c127.578,0,231-42.533,231-95
	C964.818,260.054,864.064,217.951,738.778,216.865z"/>
<path d="M419.813,510.465c-6.363,14.084-19.027,22.111-28.288,17.929c-9.26-4.184-11.61-18.992-5.248-33.077
	c3.013-6.671,33.968-34.043,33.968-34.043S423.162,503.051,419.813,510.465z"/>
<path d="M580.985,636.361c-2.057,12.578-10.427,21.677-18.696,20.324c-8.271-1.352-13.308-12.643-11.251-25.221
	c0.974-5.957,19.776-34.373,19.776-34.373S582.067,629.74,580.985,636.361z"/>
<path d="M555.228,535.701c-3.58,14.676-14.304,24.663-23.953,22.31c-9.649-2.354-14.568-16.159-10.988-30.835
	c1.696-6.95,26.515-38.811,26.515-38.811S557.114,527.977,555.228,535.701z"/>
<path d="M692.325,502.196c-3.535,16.585-15.238,28.146-26.145,25.821c-10.903-2.323-16.879-17.652-13.344-34.237
	c1.674-7.854,28.474-44.422,28.474-44.422S694.185,493.465,692.325,502.196z"/>
<path d="M692.098,654.468c-5.771,15.945-18.946,25.797-29.432,22.003c-10.483-3.793-14.306-19.795-8.536-35.739
	c2.732-7.553,34.282-40.111,34.282-40.111S695.133,646.074,692.098,654.468z"/>
<path d="M464.259,632.249c-4.607,10.866-14.133,17.219-21.277,14.189c-7.144-3.029-9.2-14.293-4.593-25.159
	c2.182-5.145,25.328-26.59,25.328-26.59S466.685,626.53,464.259,632.249z"/>
<path d="M360.227,666.428c-5.125,7.176-13.099,10.26-17.817,6.892c-4.719-3.368-4.393-11.914,0.732-19.09
	c2.426-3.397,22.784-15.278,22.784-15.278S362.922,662.651,360.227,666.428z"/>
</svg>
