<?xml version="1.0" encoding="utf-8"?>
<!-- Generator: Adobe Illustrator 16.0.0, SVG Export Plug-In . SVG Version: 6.00 Build 0)  -->
<!DOCTYPE svg PUBLIC "-//W3C//DTD SVG 1.1//EN" "http://www.w3.org/Graphics/SVG/1.1/DTD/svg11.dtd">
<svg version="1.1" id="图形" xmlns="http://www.w3.org/2000/svg" xmlns:xlink="http://www.w3.org/1999/xlink" x="0px" y="0px"
	 width="1000.637px" height="1000.678px" viewBox="0 0 1000.637 1000.678" enable-background="new 0 0 1000.637 1000.678"
	 xml:space="preserve">
<path d="M405.76,169.317c-10.77,38.853-32.086,59.596-32.086,59.596s-96.25-53.333-85.48-92.186
	c10.771-38.852,45.819-63.052,78.284-54.052C398.943,91.674,396.82,108.672,405.76,169.317z"/>
<path d="M424.568,342.839c-33.551,0-53.75-115.5-53.75-115.5l34.75-55.5c0,0,23.07-38.185,73.16-23.592
	C528.818,162.839,458.118,342.839,424.568,342.839z"/>
<path d="M570.818,476.839c0,61.44-9.664,136.611-36.53,168.601c-16.118,19.192-50.552,9.399-71.47,9.399c-55.78,0-89-186-89-186
	s5.172,54.007-3.914-27.997s55.164-112.003,54.914-105.003c-0.152,4.249,22.969-16.78,44.057-23.83
	c13.657-4.566,26.463,3.118,31.542,5.737C550.15,347.624,570.818,425.844,570.818,476.839z"/>
<path d="M628.278,261.046c44.54,17.793,35.06,92.389,0.549,113.262c-13.705,8.289-63.998,46.238-63.998,46.238l-24.52-57.915
	l-4.549-9.262C535.76,353.369,583.738,243.253,628.278,261.046z"/>
<path d="M282.607,116.03c7.183,5.435,21.839-1.837,32.739-16.241s-18.471-48.936-9.285-34.697c9.187,14.237-5.655,3.54-8.465,6.034
	c-2.863,2.543,7.408,17.151-8.254,8.983c-22.989,1.516,15.872,23.712-8.189,14.514C257.092,85.423,277.821,112.406,282.607,116.03z"
	/>
<path d="M665.735,290.878c-3.503,2.217-4.08,2.783-4.08,2.783s11.824-2.01,16.604,2.454s-3.53,6.759-3.53,6.759
	s-9.524,5.328-19.182,4.049c-9.659-1.279-21.7-23.937-18.108-31.85c3.809-8.396,19.322-4.993,19.322-4.993
	c17.2,4.904,1.465,8.351,1.465,8.351S677.871,283.197,665.735,290.878z"/>
<line fill="none" x1="444.818" y1="194.839" x2="444.818" y2="243.882"/>
<line fill="none" x1="493.116" y1="402.105" x2="499.116" y2="414.399"/>
<line fill="none" x1="367.818" y1="87.774" x2="373.818" y2="100.068"/>
<line fill="none" x1="455.818" y1="204.692" x2="461.818" y2="216.986"/>
<line fill="none" x1="455.818" y1="498.839" x2="461.818" y2="511.132"/>
<line fill="none" x1="474.818" y1="569.314" x2="480.818" y2="581.607"/>
<line fill="none" x1="477.818" y1="364.839" x2="483.818" y2="377.133"/>
<line fill="none" x1="576.296" y1="321.012" x2="570.818" y2="333.547"/>
<line fill="none" x1="417.818" y1="414.399" x2="423.818" y2="426.692"/>
<line fill="none" x1="426.66" y1="370.986" x2="432.66" y2="383.279"/>
<line fill="none" x1="328.818" y1="109.684" x2="334.818" y2="121.978"/>
<line fill="none" x1="630.904" y1="343.309" x2="642.674" y2="336.337"/>
<line fill="none" x1="601.679" y1="297.806" x2="598.37" y2="311.079"/>
<line fill="none" x1="350.224" y1="111.286" x2="359.356" y2="133.384"/>
<line fill="none" x1="395.12" y1="470.642" x2="416.4" y2="490.969"/>
<line fill="none" x1="423.229" y1="548.987" x2="444.51" y2="569.314"/>
<line fill="none" x1="429.66" y1="226.125" x2="433.869" y2="242.833"/>
<line fill="none" x1="315.792" y1="145.352" x2="319.824" y2="154.426"/>
<line fill="none" x1="403.744" y1="440.845" x2="407.776" y2="449.919"/>
<line fill="none" x1="483.818" y1="480.805" x2="483.818" y2="490.735"/>
<line fill="none" x1="529.542" y1="518.937" x2="529.542" y2="528.865"/>
<line fill="none" x1="508.554" y1="600.908" x2="508.554" y2="610.839"/>
<line fill="none" x1="357.79" y1="161.875" x2="357.79" y2="171.804"/>
<line fill="none" x1="420.818" y1="194.839" x2="422.818" y2="210.839"/>
<line fill="none" x1="458.818" y1="166.839" x2="458.818" y2="194.839"/>
<line fill="none" x1="541.979" y1="420.296" x2="529.542" y2="445.382"/>
<line fill="none" x1="614.116" y1="327.28" x2="601.679" y2="352.365"/>
<line fill="none" x1="595.254" y1="255.899" x2="608.98" y2="280.303"/>
<line fill="none" x1="508.554" y1="523.902" x2="496.116" y2="548.988"/>
<line fill="none" x1="502.335" y1="168.296" x2="489.898" y2="193.382"/>
<line fill="none" x1="636.492" y1="246.558" x2="624.055" y2="271.644"/>
<path d="M547.025,832.839H429.818c0,0-81.277-177.941-54-180c27.278-2.06,217.414-18,223.207,0S547.025,832.839,547.025,832.839z"/>
<rect x="348.562" y="74.035" transform="matrix(0.9959 -0.0905 0.0905 0.9959 -6.7812 32.0571)" fill="#FFFFFF" stroke="#FFFFFF" stroke-miterlimit="10" width="3.325" height="33.591"/>
<rect x="293.155" y="138.059" transform="matrix(0.1386 -0.9903 0.9903 0.1386 100.584 425.3548)" fill="#FFFFFF" stroke="#FFFFFF" stroke-miterlimit="10" width="3.325" height="33.591"/>
<rect x="389.526" y="360.337" transform="matrix(0.8368 -0.5475 0.5475 0.8368 -142.6394 275.7178)" fill="#FFFFFF" stroke="#FFFFFF" stroke-miterlimit="10" width="3.325" height="33.59"/>
<rect x="476.155" y="256.499" transform="matrix(0.8368 -0.5475 0.5475 0.8368 -71.6515 306.2018)" fill="#FFFFFF" stroke="#FFFFFF" stroke-miterlimit="10" width="3.325" height="33.59"/>
<rect x="385.362" y="271.465" transform="matrix(0.8368 -0.5475 0.5475 0.8368 -94.6618 258.9354)" fill="#FFFFFF" stroke="#FFFFFF" stroke-miterlimit="10" width="3.325" height="33.59"/>
<rect x="641.012" y="348.045" transform="matrix(-0.0564 0.9984 -0.9984 -0.0564 1043.1683 -256.2427)" fill="#FFFFFF" stroke="#FFFFFF" stroke-miterlimit="10" width="3.326" height="33.59"/>
<rect x="595.362" y="254.849" transform="matrix(0.9948 -0.1015 0.1015 0.9948 -24.4908 62.0076)" fill="#FFFFFF" stroke="#FFFFFF" stroke-miterlimit="10" width="3.324" height="33.59"/>
<rect x="393.458" y="92.888" transform="matrix(0.9907 0.136 -0.136 0.9907 18.5867 -52.714)" fill="#FFFFFF" stroke="#FFFFFF" stroke-miterlimit="10" width="3.325" height="33.59"/>
<rect x="374.458" y="217.684" transform="matrix(0.4887 0.8724 -0.8724 0.4887 396.8726 -208.2582)" fill="#FFFFFF" stroke="#FFFFFF" stroke-miterlimit="10" width="3.325" height="33.59"/>
<rect x="318.162" y="176.587" transform="matrix(0.4887 0.8724 -0.8724 0.4887 332.2343 -180.1558)" fill="#FFFFFF" stroke="#FFFFFF" stroke-miterlimit="10" width="3.325" height="33.59"/>
<rect x="443.155" y="133.044" transform="matrix(0.9907 0.136 -0.136 0.9907 24.5091 -59.0994)" fill="#FFFFFF" stroke="#FFFFFF" stroke-miterlimit="10" width="3.325" height="33.59"/>
<rect x="498.754" y="300.951" transform="matrix(0.9801 0.1985 -0.1985 0.9801 73.049 -93.0291)" fill="#FFFFFF" stroke="#FFFFFF" stroke-miterlimit="10" width="3.325" height="33.59"/>
<rect x="569.155" y="488.191" transform="matrix(0.9205 0.3908 -0.3908 0.9205 242.7131 -182.9028)" fill="#FFFFFF" stroke="#FFFFFF" stroke-miterlimit="10" width="3.324" height="33.589"/>
<rect x="393.458" y="519.65" transform="matrix(0.9205 0.3908 -0.3908 0.9205 241.0368 -111.7459)" fill="#FFFFFF" stroke="#FFFFFF" stroke-miterlimit="10" width="3.324" height="33.589"/>
<rect x="571.894" y="424.05" transform="matrix(0.9205 0.3908 -0.3908 0.9205 217.8672 -189.0729)" fill="#FFFFFF" stroke="#FFFFFF" stroke-miterlimit="10" width="3.324" height="33.589"/>
<rect x="622.393" y="239.104" transform="matrix(0.9781 0.2083 -0.2083 0.9781 66.9943 -124.3803)" fill="#FFFFFF" stroke="#FFFFFF" stroke-miterlimit="10" width="3.324" height="33.59"/>
<rect x="491.454" y="142.036" transform="matrix(0.8973 0.4415 -0.4415 0.8973 120.7882 -201.395)" fill="#FFFFFF" stroke="#FFFFFF" stroke-miterlimit="10" width="3.324" height="33.589"/>
<rect x="367.361" y="468.976" transform="matrix(0.8775 0.4796 -0.4796 0.8775 278.1735 -117.4684)" fill="#FFFFFF" stroke="#FFFFFF" stroke-miterlimit="10" width="3.324" height="33.589"/>
</svg>
