<?xml version="1.0" encoding="utf-8"?>
<!-- Generator: Adobe Illustrator 16.0.0, SVG Export Plug-In . SVG Version: 6.00 Build 0)  -->
<!DOCTYPE svg PUBLIC "-//W3C//DTD SVG 1.1//EN" "http://www.w3.org/Graphics/SVG/1.1/DTD/svg11.dtd">
<svg version="1.1" id="图形" xmlns="http://www.w3.org/2000/svg" xmlns:xlink="http://www.w3.org/1999/xlink" x="0px" y="0px"
	 width="1000.637px" height="1000.678px" viewBox="15.167 -16.333 1000.637 1000.678"
	 enable-background="new 15.167 -16.333 1000.637 1000.678" xml:space="preserve">
<path d="M865.625,378.839c-41.193-2-618.904,2.786-656.613,0s-90.693,132.474-90.693,132.474c0,31.311,25.382,56.693,56.693,56.693
	h722.613c31.312,0,56.693-25.383,56.693-56.693C954.318,511.313,906.818,380.839,865.625,378.839z M226.345,509.67
	c0,0-42.215-2.169-59.848,0c-17.632,2.169,48.706-80.169,59.435-75C236.66,439.839,226.345,509.67,226.345,509.67z M329.818,510.712
	h-74v-78.638h74V510.712z M446.818,561.006h-86V428.839h86V561.006z M567.485,510.839h-74v-82h74V510.839z M703.818,560.006h-86
	V428.839h86V560.006z M829.485,510.839h-74v-82h74V510.839z M899.008,503.978c-22.251,3.11-35.253,1.765-35.253,1.765
	s2.093-52.563,2.688-67.521C867.04,423.263,921.258,500.866,899.008,503.978z"/>
<rect x="370.818" y="446.171" width="16" height="54"/>
<rect x="414.818" y="446.171" width="16" height="54"/>
<rect x="674.818" y="446.171" width="16" height="54"/>
<rect x="630.818" y="446.171" width="16" height="54"/>
</svg>
