<?xml version="1.0" encoding="utf-8"?>
<!-- Generator: Adobe Illustrator 16.0.0, SVG Export Plug-In . SVG Version: 6.00 Build 0)  -->
<!DOCTYPE svg PUBLIC "-//W3C//DTD SVG 1.1//EN" "http://www.w3.org/Graphics/SVG/1.1/DTD/svg11.dtd">
<svg version="1.1" id="图形" xmlns="http://www.w3.org/2000/svg" xmlns:xlink="http://www.w3.org/1999/xlink" x="0px" y="0px"
	 width="1000.637px" height="1000.678px" viewBox="15.167 -16.333 1000.637 1000.678"
	 enable-background="new 15.167 -16.333 1000.637 1000.678" xml:space="preserve">
<path d="M665.689,134.84c-7-32-55-57-55-57s-71.33-22.014-118.284,11.656c-21.136,15.156-37.332,67.111-39.86,93.114
	c-11.43,157.855-49.004,625.49-30.855,646.23c21,24,213.002,1.769,246.133,1.996s35.867-19.996,35.867-19.996
	S672.689,166.839,665.689,134.84z M563.253,421.382c-52.881,0-95.75-68.622-95.75-153.271c0-84.649,42.869-153.271,95.75-153.271
	s95.75,68.622,95.75,153.271C659.003,352.76,616.134,421.382,563.253,421.382z"/>
<ellipse cx="512.178" cy="229.839" rx="31" ry="12.5"/>
<ellipse cx="612.818" cy="229.839" rx="31" ry="12.5"/>
<path d="M509.082,209.696c-13.2-2.895-7.934-10.056-7.033-14.157c0.898-4.101,12.643-41.323,19.371-42.087
	c6.729-0.766-1.32,50.879-1.32,50.879S522.281,212.591,509.082,209.696z"/>
<path d="M616.854,209.476c-13.086,3.375-11.619-5.391-12.667-9.457c-1.05-4.065-7.373-42.581-1.715-46.3
	c5.658-3.72,21.791,45.996,21.791,45.996S629.939,206.101,616.854,209.476z"/>
<path d="M512.6,261.478c13.499,0.634,9.268,13.786,8.943,20.672c-0.323,6.886-6.809,70.479-13.379,73.767
	c-6.569,3.289-5.753-82.422-5.753-82.422S499.101,260.844,512.6,261.478z"/>
<path d="M613.181,261.478c13.498,0.634,9.268,13.786,8.943,20.672s-6.809,70.479-13.379,73.767
	c-6.57,3.289-5.754-82.422-5.754-82.422S599.681,260.844,613.181,261.478z"/>
<rect x="502.165" y="248.089" transform="matrix(1 -0.002 0.002 1 -0.4912 1.0125)" width="15.75" height="0"/>
<rect x="604.944" y="248.105" transform="matrix(1 -0.002 0.002 1 -0.4911 1.2164)" width="15.75" height="0"/>
<rect x="535.253" y="369.139" width="54.564" height="3.561"/>
</svg>
