<?xml version="1.0" encoding="utf-8"?>
<!-- Generator: Adobe Illustrator 16.0.0, SVG Export Plug-In . SVG Version: 6.00 Build 0)  -->
<!DOCTYPE svg PUBLIC "-//W3C//DTD SVG 1.1//EN" "http://www.w3.org/Graphics/SVG/1.1/DTD/svg11.dtd">
<svg version="1.1" id="图形" xmlns="http://www.w3.org/2000/svg" xmlns:xlink="http://www.w3.org/1999/xlink" x="0px" y="0px"
	 width="1000.637px" height="1000.678px" viewBox="0 0 1000.637 1000.678" enable-background="new 0 0 1000.637 1000.678"
	 xml:space="preserve">
<path d="M301.147,496.604c0-23.599,33.317-43.451,78.554-49.27c8.788-37.313,53.992-65.73,108.446-65.73
	c11.57,0,22.722,1.286,33.196,3.665c18.49-8.947,42.188-14.366,68.053-14.49c0.595-6.178,0.909-12.437,0.909-18.771
	c0-106.775-86.56-193.334-193.333-193.334c-3.495,0-6.966,0.099-10.416,0.281c39.928,20.619,69.406,59.85,75.575,107.792
	c9.979,77.555-44.8,148.516-122.355,158.494c-55.09,7.09-106.845-18.505-135.788-61.721c5.031,85.64,65.8,156.297,146.554,176.206
	C320.859,530.69,301.147,514.755,301.147,496.604z"/>
<path fill="#FFFFFF" stroke="#000000" stroke-miterlimit="10" d="M691.147,404.632c-1.479,0-2.95,0.022-4.415,0.057
	c-17.802-20.5-54.295-34.557-96.427-34.557c-26.22,0-50.255,5.444-68.962,14.497c-10.476-2.38-21.626-3.665-33.196-3.665
	c-54.454,0-99.657,28.418-108.446,65.729c-45.236,5.819-78.554,25.671-78.554,49.271c0,28.167,47.458,51,106,51
	c10.168,0,19.997-0.693,29.306-1.979c21.906,19.488,67.606,32.896,120.444,32.896c65.165,0,119.478-20.391,131.68-47.435
	c0.854,0.011,1.711,0.019,2.57,0.019c59.646,0,108-28.169,108-62.916C799.147,432.8,750.793,404.632,691.147,404.632z"/>
</svg>
