<?xml version="1.0" encoding="utf-8"?>
<!-- Generator: Adobe Illustrator 16.0.0, SVG Export Plug-In . SVG Version: 6.00 Build 0)  -->
<!DOCTYPE svg PUBLIC "-//W3C//DTD SVG 1.1//EN" "http://www.w3.org/Graphics/SVG/1.1/DTD/svg11.dtd">
<svg version="1.1" id="图形" xmlns="http://www.w3.org/2000/svg" xmlns:xlink="http://www.w3.org/1999/xlink" x="0px" y="0px"
	 width="1000.637px" height="1000.678px" viewBox="15.167 -16.333 1000.637 1000.678"
	 enable-background="new 15.167 -16.333 1000.637 1000.678" xml:space="preserve">
<g>
	<path d="M934.649,384.992L764.215,277.464l0.437-25.78c0,0-15.058-7.276-17.046-17.938c-0.024,7.932-0.347,26.429-0.736,46.255
		l-179.038,102.74l0.995,1.735l177.997-102.143c-0.018,0.916-0.036,1.833-0.055,2.751l-167.252,99.908h-64.751L336.25,275.832
		c-0.036-16.853-0.03-31.789,0.065-38.702c-2.167,10.628-17.347,17.647-17.347,17.647v22.89L137.443,384.992h-14.842l-47,10.565
		h561.741c0.228-0.016,0.459-0.016,0.692,0h362.133l-42-10.565H934.649z M930.934,384.992h-27.118l-139.8-95.73l0.16-9.479
		L930.934,384.992z M746.414,302.503l-77.22,82.49h-18.271l95.541-84.927C746.448,300.881,746.431,301.694,746.414,302.503z
		 M746.368,304.72c-0.021,0.991-0.041,1.975-0.062,2.951l-63.585,77.321h-11.498L746.368,304.72z M746.255,310.067
		c-0.035,1.678-0.07,3.328-0.105,4.944l-46.549,69.982h-14.96L746.255,310.067z M746.091,317.774
		c-0.041,1.908-0.08,3.754-0.119,5.541l-33.846,61.678H701.38L746.091,317.774z M745.896,326.847
		c-0.266,12.204-0.453,20.522-0.453,20.522l-10.68,37.623h-20.774L745.896,326.847z M752.76,362.005
		c2.968-1.695,5.313,17.473,5.923,22.988h-14.402C745.51,380.094,749.82,363.683,752.76,362.005z M763.028,347.667l0.261-15.395
		l33.338,52.72h-27.15L763.028,347.667z M763.349,328.709l0.13-7.685l45.334,63.969h-9.871L763.349,328.709z M763.535,317.716
		l0.034-2.006l68.043,69.283h-20.397L763.535,317.716z M763.616,312.947l0.053-3.134l86.642,75.18h-15.938L763.616,312.947z
		 M763.711,307.239l0.112-6.601l108.398,84.354h-18.901L763.711,307.239z M763.866,298.167l0.11-6.532l136.335,93.357h-24.87
		L763.866,298.167z M746.731,287.009c-0.023,1.187-0.048,2.374-0.071,3.56l-153.804,94.424h-10.154L746.731,287.009z
		 M739.126,297.109l-114.715,87.883h-28.435L739.126,297.109z M510.933,384.992H482.14l-145.858-96.803
		c-0.01-3.369-0.02-6.718-0.027-10.01L510.933,384.992z M318.968,290.651L165.3,384.992h-7.074l159.751-98.843l0.99,0.747V290.651z
		 M313.832,295.72l-116.527,89.272h-28.883L313.832,295.72z M318.968,293.842v4.606l-97.36,86.544H199.99L318.968,293.842z
		 M318.968,300.633v2.779l-76.369,81.581h-18.532L318.968,300.633z M318.968,305.58v3.187l-62.683,76.225h-11.656L318.968,305.58z
		 M318.968,311.1v5.359l-45.586,68.533h-15.179L318.968,311.1z M318.968,319.135v5.906l-32.899,59.952h-10.907L318.968,319.135z
		 M318.968,328.435v22.339l-7.694,34.075l0.584,0.144h-23.926L318.968,328.435z M328.991,365.282
		c2.998,1.78,7.233,16.135,8.249,19.71h-14.271C323.847,378.741,326.265,363.664,328.991,365.282z M336.555,350.774
		c0,0-0.035-6.115-0.082-15.552l32.474,49.771h-21.472L336.555,350.774z M336.456,331.535c-0.013-2.651-0.026-5.499-0.04-8.502
		l45.306,61.959h-10.386L336.456,331.535z M336.4,319.624c-0.005-1.176-0.01-2.364-0.016-3.575l69.861,68.943h-22.046L336.4,319.624
		z M336.373,313.228c-0.005-1.203-0.01-2.424-0.015-3.653l89.676,75.417h-16.941L336.373,313.228z M336.347,306.954
		c-0.009-2.296-0.018-4.623-0.026-6.969l112.709,85.008h-19.889L336.347,306.954z M336.312,297.473
		c-0.001-0.214-0.001-0.427-0.002-0.641l0.168-0.306l-0.169-0.093c-0.006-1.943-0.013-3.892-0.019-5.84l142.235,94.398h-26.173
		L336.312,297.473z M318.968,279.564v4.053l-0.564,0.349l0.143-0.061l-1.967,1.19l-161.456,99.897h-14.472L318.968,279.564z
		 M627.098,384.992l119.503-91.552c-0.03,1.472-0.061,2.938-0.091,4.398l-98.045,87.154H627.098z"/>
	<path d="M336.555,233.893c-0.111-1.89-0.189-0.483-0.24,3.237C336.528,236.084,336.621,235.005,336.555,233.893z"/>
	<path d="M747.42,230.506c-0.084,1.111-0.01,2.191,0.186,3.24C747.618,230.026,747.564,228.618,747.42,230.506z"/>
</g>
<polygon points="355.374,407.012 307.707,407.012 291.818,398.823 369.818,398.823 "/>
<polygon points="779.546,408.012 731.88,408.012 715.991,399.823 793.991,399.823 "/>
<rect x="309.273" y="410.595" width="8" height="34.833"/>
<rect x="344.364" y="410.595" width="8" height="34.833"/>
<rect x="732.578" y="410.595" width="8" height="34.833"/>
<rect x="765.991" y="410.595" width="8" height="34.833"/>
<circle fill="#FFFFFF" cx="329.232" cy="262.184" r="4.839"/>
<circle fill="#FFFFFF" cx="755.236" cy="262.184" r="4.839"/>
</svg>
