<?xml version="1.0" encoding="utf-8"?>
<!-- Generator: Adobe Illustrator 16.0.0, SVG Export Plug-In . SVG Version: 6.00 Build 0)  -->
<!DOCTYPE svg PUBLIC "-//W3C//DTD SVG 1.1//EN" "http://www.w3.org/Graphics/SVG/1.1/DTD/svg11.dtd">
<svg version="1.1" id="图形" xmlns="http://www.w3.org/2000/svg" xmlns:xlink="http://www.w3.org/1999/xlink" x="0px" y="0px"
	 width="1000.637px" height="1000.678px" viewBox="15.167 -16.333 1000.637 1000.678"
	 enable-background="new 15.167 -16.333 1000.637 1000.678" xml:space="preserve">
<path d="M930.199,851.287c1.415-0.564,2.857-1.06,4.321-1.474c-0.239-0.164-0.48-0.333-0.723-0.505
	c-1.244,0.71-2.534,1.362-3.85,1.979C930.032,851.285,930.115,851.288,930.199,851.287z"/>
<path d="M934.578,836.778c1.449-1.208,2.792-2.529,4.013-3.965c-0.214-0.021-0.427-0.043-0.639-0.066
	c-1.259,0.587-2.541,1.231-3.808,1.938c-0.245,0.224-0.492,0.444-0.745,0.659c0.261,0.379,0.506,0.683,0.798,1.014
	C934.326,836.504,934.451,836.637,934.578,836.778z"/>
<g>
	<path d="M901.79,407.362c-30.138-100.375-83.246-176.767-129.131-192.089c19.021,30.937,36.757,72.764,14.534,94.804
		c-36.061,35.761-175.422,20.315-185.697,9.926c-8.867-8.967-13.469-32.042-13.469-32.042s0.02-0.042,0.05-0.105h-0.389v-33.947
		l-1.683-34.203l-30.838,34.203h-57.192l-31.959-33.642l-0.561,33.642v33.947h-0.488c0.316,0.777,0.488,1.432,0.488,1.936
		c0,22.834-43.353,41.345-96.83,41.345s-96.829-18.511-96.829-41.345c0-7.532,5.418-47.659,23.101-73.881
		c-47.081,11.256-107.271,81.353-147.422,177.313c-25.416,60.743-37.813,119.93-37.142,165.702
		c54.79-55.187,122.358-76.226,156.295-46.633c19.572,17.066,23.979,47.509,15.153,82.073
		c25.373-57.529,63.645-94.165,106.462-94.165c65.886,0,120.996,86.75,134.917,202.893c2.532-0.804,5.108-1.474,7.703-1.889
		c13.888-116.228,69.027-203.055,134.944-203.055c45.874,0,86.531,42.052,111.696,106.8c-4.969-47.929,7.922-87.417,37.145-100.69
		c31.714-14.404,74.022,5.984,108.53,47.701C924.446,510.304,917.546,459.842,901.79,407.362z"/>
</g>
</svg>
