<?xml version="1.0" encoding="utf-8"?>
<!-- Generator: Adobe Illustrator 16.0.0, SVG Export Plug-In . SVG Version: 6.00 Build 0)  -->
<!DOCTYPE svg PUBLIC "-//W3C//DTD SVG 1.1//EN" "http://www.w3.org/Graphics/SVG/1.1/DTD/svg11.dtd">
<svg version="1.1" id="图形" xmlns="http://www.w3.org/2000/svg" xmlns:xlink="http://www.w3.org/1999/xlink" x="0px" y="0px"
	 width="1000.637px" height="1000.678px" viewBox="15.167 -16.333 1000.637 1000.678"
	 enable-background="new 15.167 -16.333 1000.637 1000.678" xml:space="preserve">
<rect x="377.818" y="206.839" width="12" height="304"/>
<rect x="639.818" y="206.839" width="12" height="304"/>
<path d="M438.231,340.699c0,3.943-3.673,7.14-8.204,7.14h-24.11c-4.532,0-8.205-3.197-8.205-7.14v-20.983
	c0-3.944,3.673-7.141,8.205-7.141h24.11c4.531,0,8.204,3.197,8.204,7.141V340.699z"/>
<path d="M438.231,403.963c0,3.943-3.673,7.14-8.204,7.14h-24.11c-4.532,0-8.205-3.197-8.205-7.14V382.98
	c0-3.944,3.673-7.141,8.205-7.141h24.11c4.531,0,8.204,3.197,8.204,7.141V403.963z"/>
<path d="M438.231,466.866c0,3.943-3.673,7.14-8.204,7.14h-24.11c-4.532,0-8.205-3.197-8.205-7.14v-20.983
	c0-3.944,3.673-7.141,8.205-7.141h24.11c4.531,0,8.204,3.197,8.204,7.141V466.866z"/>
<path d="M438.231,279.963c0,3.943-3.673,7.14-8.204,7.14h-24.11c-4.532,0-8.205-3.197-8.205-7.14V258.98
	c0-3.944,3.673-7.141,8.205-7.141h24.11c4.531,0,8.204,3.197,8.204,7.141V279.963z"/>
<path d="M627.078,340.199c0,3.943-3.673,7.14-8.204,7.14h-24.11c-4.531,0-8.205-3.197-8.205-7.14v-20.983
	c0-3.944,3.674-7.141,8.205-7.141h24.11c4.531,0,8.204,3.197,8.204,7.141V340.199z"/>
<path d="M627.078,403.463c0,3.943-3.673,7.14-8.204,7.14h-24.11c-4.531,0-8.205-3.197-8.205-7.14V382.48
	c0-3.944,3.674-7.141,8.205-7.141h24.11c4.531,0,8.204,3.197,8.204,7.141V403.463z"/>
<path d="M627.078,466.366c0,3.943-3.673,7.14-8.204,7.14h-24.11c-4.531,0-8.205-3.197-8.205-7.14v-20.983
	c0-3.944,3.674-7.141,8.205-7.141h24.11c4.531,0,8.204,3.197,8.204,7.141V466.366z"/>
<path d="M627.078,279.463c0,3.943-3.673,7.14-8.204,7.14h-24.11c-4.531,0-8.205-3.197-8.205-7.14V258.48
	c0-3.944,3.674-7.141,8.205-7.141h24.11c4.531,0,8.204,3.197,8.204,7.141V279.463z"/>
<path d="M397.712,206.839v10.492c0,3.943,3.673,7.14,8.205,7.14h24.11c4.531,0,8.204-3.197,8.204-7.14v-10.492H397.712z"/>
<path d="M586.558,206.839v10.492c0,3.943,3.674,7.14,8.205,7.14h24.11c4.531,0,8.204-3.197,8.204-7.14v-10.492H586.558z"/>
<path d="M557.151,206.839v3.459c0,7.828-6.346,14.173-14.173,14.173h-60.321c-7.828,0-14.173-6.346-14.173-14.173v-3.459h-19.666
	v304h20.132c1.577-6.107,7.107-10.625,13.708-10.625h60.321c6.6,0,12.13,4.518,13.707,10.625h20.133v-304H557.151z M557.151,445.666
	c0,7.828-6.346,14.173-14.173,14.173h-60.321c-7.828,0-14.173-6.346-14.173-14.173v-49.653c0-7.828,6.346-14.173,14.173-14.173
	h60.321c7.827,0,14.173,6.346,14.173,14.173V445.666z M557.151,321.666c0,7.828-6.346,14.173-14.173,14.173h-60.321
	c-7.828,0-14.173-6.346-14.173-14.173v-49.653c0-7.828,6.346-14.173,14.173-14.173h60.321c7.827,0,14.173,6.346,14.173,14.173
	V321.666z"/>
<path d="M438.231,510.839v-10.492c0-3.944-3.673-7.141-8.204-7.141h-24.11c-4.532,0-8.205,3.197-8.205,7.141v10.492H438.231z"/>
<path d="M627.078,510.839v-10.492c0-3.944-3.673-7.141-8.204-7.141h-24.11c-4.531,0-8.205,3.197-8.205,7.141v10.492H627.078z"/>
</svg>
