<?xml version="1.0" encoding="utf-8"?>
<!-- Generator: Adobe Illustrator 16.0.0, SVG Export Plug-In . SVG Version: 6.00 Build 0)  -->
<!DOCTYPE svg PUBLIC "-//W3C//DTD SVG 1.1//EN" "http://www.w3.org/Graphics/SVG/1.1/DTD/svg11.dtd">
<svg version="1.1" id="图形" xmlns="http://www.w3.org/2000/svg" xmlns:xlink="http://www.w3.org/1999/xlink" x="0px" y="0px"
	 width="1000.637px" height="1000.678px" viewBox="15.167 -16.333 1000.637 1000.678"
	 enable-background="new 15.167 -16.333 1000.637 1000.678" xml:space="preserve">
<polygon points="558.783,278.421 460.384,279.69 410.086,195.108 458.187,109.258 556.585,107.989 606.884,192.571 "/>
<rect x="427.646" y="294.839" transform="matrix(0.6505 0.7595 -0.7595 0.6505 420.9179 -221.0477)" width="46" height="104"/>
<rect x="427.646" y="372.839" transform="matrix(0.6505 0.7595 -0.7595 0.6505 480.1586 -193.7877)" width="46" height="104"/>
<rect x="427.646" y="456.84" transform="matrix(0.6505 0.7595 -0.7595 0.6505 543.9657 -164.4293)" width="46" height="103.999"/>
<rect x="427.646" y="534.839" transform="matrix(0.6505 0.7595 -0.7595 0.6505 603.2068 -137.1686)" width="46" height="104"/>
<rect x="427.646" y="618.839" transform="matrix(0.6505 0.7595 -0.7595 0.6505 667.0052 -107.8107)" width="46" height="104"/>
<rect x="427.646" y="696.839" transform="matrix(0.6505 0.7595 -0.7595 0.6505 726.2466 -80.5499)" width="46" height="104"/>
<rect x="549.796" y="291.196" transform="matrix(-0.6313 0.7755 -0.7755 -0.6313 1200.5669 115.6414)" width="45.999" height="103.999"/>
<rect x="551.745" y="369.172" transform="matrix(-0.6313 0.7755 -0.7755 -0.6313 1264.2189 241.3323)" width="45.999" height="103.999"/>
<rect x="553.845" y="453.145" transform="matrix(-0.6313 0.7755 -0.7755 -0.6313 1332.7712 376.7112)" width="45.998" height="103.999"/>
<rect x="555.792" y="531.123" transform="matrix(-0.6313 0.7755 -0.7755 -0.6313 1396.418 502.3737)" width="46" height="103.999"/>
<rect x="557.892" y="615.094" transform="matrix(-0.6313 0.7755 -0.7755 -0.6313 1464.9678 637.7565)" width="46" height="104"/>
<rect x="559.842" y="693.07" transform="matrix(-0.6313 0.7755 -0.7755 -0.6313 1528.6194 763.4329)" width="45.999" height="103.999"/>
</svg>
