<?xml version="1.0" encoding="utf-8"?>
<!-- Generator: Adobe Illustrator 16.0.0, SVG Export Plug-In . SVG Version: 6.00 Build 0)  -->
<!DOCTYPE svg PUBLIC "-//W3C//DTD SVG 1.1//EN" "http://www.w3.org/Graphics/SVG/1.1/DTD/svg11.dtd">
<svg version="1.1" id="图形" xmlns="http://www.w3.org/2000/svg" xmlns:xlink="http://www.w3.org/1999/xlink" x="0px" y="0px"
	 width="1000.637px" height="1000.678px" viewBox="15.167 -16.333 1000.637 1000.678"
	 enable-background="new 15.167 -16.333 1000.637 1000.678" xml:space="preserve">
<g>
	<path d="M632.722,322.852c-8.642-4.608-19.853-7.289-32.383-8.164c-7.056-1.776-15.152-2.604-23.429-2.604
		c-7.532,0.004-14.635,1.073-20.91,2.95l-21.225-0.648v1.094l-6.437-0.97c-0.374-0.124-0.759-0.237-1.137-0.355l-1.325-0.041
		l-0.078-0.39c-5.573-1.609-11.745-2.604-18.271-2.808c-8.271-0.258-16.389,0.322-23.496,1.878
		c-12.553,0.489-23.84,2.823-32.618,7.162c-12.512,3.135-23.191,8.522-30.758,15.423c2.369-1.666,4.73-3.342,7.003-5.103
		c14.261,16.315,55.331,29.795,104.409,32.597c61.866,3.531,113.024-11.243,114.267-32.998c0.032-0.565,0.023-1.13-0.012-1.693
		c4.125,2.928,8.505,5.47,13.003,7.811C652.316,330.36,643.199,325.824,632.722,322.852z"/>
	<path d="M978.231,827.345l-65.073-125.516c-21.922-103.623-191.412-390.381-191.412-390.381l-0.052,0.171
		c-37.605-95.109-126.845-160.457-191.109-160.457c-54.923,0-144.83,48.212-176.456,112.402L179.888,590.978l-44.246,81.239
		l1.953-0.91C91.133,747.83,51.943,812.372,38.301,834.842c-34.897,57.472,88.697,12.343,128.888-3.465
		c13.719-12.205,30.383-23.66,45.8-29.684c15.528-10.081,35.937-17.229,48.475-35.685c9.917-12.474,14.956-32.463,16.15-37.728
		c1.433-15.578,3.923-32.634,7.469-50.554l0.234,0.409c-3.188,18.219-5.313,35.52-6.396,51.286
		c-1.089,5.327-5.718,25.587-15.464,38.493c-12.263,19.013-32.768,26.977-48.252,37.697c-9.789,4.205-20.034,10.612-29.687,17.986
		c28.963-13.233,151.243-66.02,155.335-16.01c6.494-26.058,15.929-53.997,26.962-75.518c9.35-26.508,24.886-55.108,26.944-87.063
		c2.758-23.098-3.109-48.796-4.78-55.426c-6.936-17.423-13.656-37.462-19.836-59.484l0.439,0.173
		c6.678,21.954,13.876,41.865,21.243,59.115c1.805,6.584,8.204,32.129,5.84,55.494c-1.501,32.233-16.695,61.771-25.662,88.891
		c-13.358,27.537-24.052,64.882-29.76,95.966c15.204-4.342,62.496-31.891,95.214-6.309c-1.724-11.988-2.088-22.056-2.16-26.258
		c3.654-30.42-28.2-102.75-28.2-102.75s33.468,71.441,30.569,101.635c0.188,4.709,0.917,16.811,3.556,30.636
		c5.417,5.133,10.354,11.908,14.564,20.748c9.914,20.808,22.187-188.651,188.858,0.171c27.552,31.213,64.48,61.66,81.211-20.167
		h-0.629c0.521-7.624,1.719-15.301,3.887-22.993c5.417-25.976,24.194-52.67,29.261-59.521c21.397-21.928,40.092-98.72,40.092-98.72
		s-16.873,77.067-37.535,99.276c-4.84,6.872-22.638,33.437-27.584,58.99c24.516-43.056,99.234-27.359,147.792-3.21
		c-11.067-9.454-22.757-19.564-29.182-34.673c-7.412-14.373-8.53-35.126-8.696-40.561c2.022-19.751-18.574-63.458-18.574-63.458
		s21.6,43.01,20.049,62.555c0.289,5.391,1.858,25.946,9.509,39.922c9.223,20.32,28.122,30.828,41.709,43.402
		c8.048,4.859,16.195,11.519,23.835,18.99h-0.673c0.432,0.49,0.851,0.979,1.236,1.461
		C1036.478,918.317,976.496,827.145,978.231,827.345z M517.648,620.979l0.514-1.406l30.632-0.272l1.34,2.272L517.648,620.979z
		 M574.594,506.019l-73.536-2.17l0.064-2.158l73.536,2.171L574.594,506.019z M564.779,493.169v2.157h-53.842v-2.157H564.779z
		 M517.102,484.23v-2.158h40.278v2.158H517.102z M614.177,567.379c0.043,0.13,0.07,0.264,0.119,0.387l-37.405,68.184l-0.595-0.52
		l31.771-69.963l0.413-2.348l-11.279-25.866l-4.746,3.748c-0.516,0.406-1.26,0.318-1.665-0.196
		c-0.406-0.514-0.317-1.259,0.195-1.664l5.236-4.135l-2.432-5.578l-6.257,4.941c-0.513,0.405-1.257,0.317-1.663-0.196
		c-0.405-0.515-0.319-1.259,0.195-1.665l6.745-5.325l-2.636-6.043l-6.339,5.006c-0.515,0.406-1.259,0.318-1.666-0.195
		c-0.405-0.515-0.317-1.258,0.197-1.665l6.829-5.393l-2.176-4.989l-6.874,5.428c-0.513,0.404-1.259,0.316-1.664-0.198
		c-0.405-0.513-0.317-1.257,0.197-1.663l7.361-5.813l-17.06-39.12l-63.471-0.75l-21.117,37.987c0.243,0.048,0.478,0.15,0.657,0.348
		l6.403,7.044c0.441,0.483,0.404,1.232-0.08,1.673c-0.484,0.441-1.232,0.406-1.673-0.079l-6.393-7.031l-3.824,6.882l5.8,6.38
		c0.439,0.484,0.404,1.233-0.081,1.674c-0.484,0.44-1.232,0.404-1.673-0.08l-5.262-5.787l-3.629,6.527l5.353,5.888
		c0.441,0.484,0.405,1.234-0.079,1.675c-0.484,0.439-1.234,0.405-1.674-0.079l-4.814-5.297l-3.907,7.03l5.735,6.312
		c0.441,0.483,0.405,1.233-0.079,1.672c-0.484,0.441-1.232,0.406-1.674-0.078l-5.199-5.719l-11.731,21.105l34.088,73.539
		l-0.615,0.562l-37.778-72.608l-0.275,0.188l-41.501-61.892l2.121-0.16L453.2,558.92l1.348-1.169l44.796-92.944l78.266,0.754
		l34.718,97.156l0.38,0.396c0.129,0.568,0.308,1.135,0.588,1.673c0.03,0.059,0.063,0.116,0.095,0.176l34.355-62.824l2.16,1.182
		L614.177,567.379z M537.899,430.715l-0.039,0.232l-0.765-0.146l-0.177,0.019v0.238l-0.934-0.121l-0.771,0.129l-0.024-0.233
		c0,0-77.537-15.111-101.212-19.795c-23.269-4.604,98.484,11.997,102.663,12.567l0.012-0.146c0.056,0.005,0.108,0.009,0.165,0.014
		c0,0,127.507-14.499,103.536-10.334C616.385,417.305,537.899,430.715,537.899,430.715z M626.577,436.29
		c-12.448,31.995-30.809,24.944-64.986,20.344c-13.354-0.312-28.237,0.131-42.085,2.313c-38.064,5.999-57.462,16.777-72.06-16.56
		c0.256-5.92,2.208-18.534,13.294-15.649c8.454,2.201,48.359,9.173,66.828,12.36l9.473-0.746c0,0,64.647-13.799,75.604-17.143
		C623.599,417.864,626.075,430.385,626.577,436.29z M640.66,395.73c-23.968,4.166-102.454,17.576-102.454,17.576l-0.04,0.232
		l-0.766-0.146l-0.176,0.02v0.238l-0.934-0.121l-0.771,0.128l-0.024-0.233c0,0-77.538-15.111-101.212-19.795
		c-23.269-4.604,98.485,11.996,102.663,12.567l0.012-0.146c0.056,0.004,0.108,0.01,0.164,0.015
		C537.121,406.064,664.63,391.565,640.66,395.73z M640.352,376.128c-23.967,4.167-102.454,17.576-102.454,17.576l-0.039,0.232
		l-0.765-0.146l-0.176,0.02v0.238l-0.936-0.121l-0.771,0.128l-0.023-0.234c0,0-77.539-15.11-101.214-19.795
		c-23.269-4.604,98.485,11.997,102.665,12.567l0.01-0.146c0.056,0.005,0.109,0.009,0.164,0.015
		C536.813,386.463,664.323,371.964,640.352,376.128z M787.145,605.133c-14.218-11.829-28.169-22.283-41.305-31.067
		c-4.081-3.595-19.352-17.69-25.7-32.564c-10.39-20.096-7.097-41.845-8.692-60.612c3.419-29.576-6.282-70.807-17.256-90.405
		c-5.665-20.807-15.171-37.486-26.997-47.152c-7.369,21.258-61.152,36.11-133.262,31.995
		c-54.514-3.111-97.446-15.806-121.561-31.546c0.3,0.016-0.21-0.1-0.878-0.234c-9.948,9.656-18.164,24.299-23.607,42.113
		c-11.575,19.249-22.542,60.16-20.037,89.826c-2.173,18.712,0.445,40.55-10.56,60.317c-6.802,14.672-22.502,28.288-26.691,31.756
		c-16.837,10.521-38.713,53.604-38.713,53.604s20.709-43.445,37.093-54.215c4.081-3.535,19.349-17.388,25.691-32.005
		c10.385-19.751,7.088-41.121,8.678-59.565c-3.427-29.059,6.261-69.576,17.231-88.831c5.871-21.223,15.875-38.097,28.329-47.41
		c7.341-8.398,19.002-15.126,33.123-19.065c8.638-4.529,19.848-7.167,32.38-8.032c7.053-1.744,15.15-2.562,23.427-2.562
		c4.698,0,17.908,0.166,27.184,0.291l-0.055-0.273c0,0,54.148,1.22,61.678,1.452c8.272,0.255,16.34,1.322,23.335,3.285
		c12.501,1.251,23.625,4.232,32.12,9.026c13.992,4.371,25.438,11.458,32.517,20.079c12.159,9.693,21.639,26.867,26.854,48.261
		c10.37,19.585,18.803,60.382,14.482,89.322c1.017,18.484-2.935,39.742,6.837,59.803c5.885,14.808,20.719,29.123,24.69,32.781
		c12.801,8.991,26.356,19.638,40.138,31.63H787.145z"/>
</g>
</svg>
