<?xml version="1.0" encoding="utf-8"?>
<!-- Generator: Adobe Illustrator 16.0.0, SVG Export Plug-In . SVG Version: 6.00 Build 0)  -->
<!DOCTYPE svg PUBLIC "-//W3C//DTD SVG 1.1//EN" "http://www.w3.org/Graphics/SVG/1.1/DTD/svg11.dtd">
<svg version="1.1" id="图形" xmlns="http://www.w3.org/2000/svg" xmlns:xlink="http://www.w3.org/1999/xlink" x="0px" y="0px"
	 width="1000.637px" height="1000.678px" viewBox="0 0 1000.637 1000.678" enable-background="new 0 0 1000.637 1000.678"
	 xml:space="preserve">
<path d="M451.152,685.505h128.667V142.173c0-35.53-28.804-64.333-64.333-64.333l0,0c-35.531,0-64.334,28.803-64.334,64.333V685.505
	L451.152,685.505z"/>
<path d="M678.271,359.729L578.3,376.572l0.464-94.818l58.105-8.23l81.164,30.498C718.033,304.021,703.821,355.149,678.271,359.729z"
	/>
<path d="M722.641,119.366c23.476,6.277,35.923,35.985,27.803,66.35l-29.87,111.682c-8.12,30.362-33.734,49.89-57.211,43.612l0,0
	c-23.475-6.277-35.921-35.985-27.802-66.348l29.87-111.683C673.551,132.617,699.167,113.09,722.641,119.366L722.641,119.366z"/>
<path d="M451.602,585.799l-132.409-19.223l57.341-81.978l74.408,15.222L451.602,585.799z"/>
<path d="M383.393,524.73c3.061,20.354-14.825,39.914-39.948,43.692l0,0c-25.123,3.776-47.969-9.659-51.029-30.014l-20.721-137.796
	c-3.06-20.353,14.824-39.915,39.947-43.691l0,0c25.123-3.777,47.97,9.659,51.03,30.013L383.393,524.73z"/>
<path d="M455.152,856.839c0,0-88.334-138-67.418-158c3.084-18,233.604-22,249.344,0c15.74,22-40.386,158-53.259,158"/>
<rect x="491.331" y="170.839" fill="#FFFFFF" width="4.224" height="513.09"/>
<rect x="539.214" y="136.193" fill="#FFFFFF" width="4.223" height="545.191"/>
<rect x="275.071" y="367.833" transform="matrix(-0.9293 0.3692 -0.3692 -0.9293 676.052 634.2849)" fill="#FFFFFF" width="4.523" height="27.999"/>
<rect x="354.797" y="380.081" transform="matrix(-0.8185 -0.5745 0.5745 -0.8185 422.9002 921.7693)" fill="#FFFFFF" width="4.523" height="28"/>
<rect x="316.931" y="347.496" transform="matrix(-0.8185 -0.5745 0.5745 -0.8185 372.7621 840.7602)" fill="#FFFFFF" width="4.523" height="28"/>
<rect x="374.585" y="446.906" transform="matrix(-0.8185 -0.5745 0.5745 -0.8185 420.4926 1054.6582)" fill="#FFFFFF" width="4.523" height="28"/>
<rect x="680.404" y="122.199" transform="matrix(-0.8219 0.5697 -0.5697 -0.8219 1321.3087 -140.7834)" fill="#FFFFFF" width="4.524" height="28"/>
<rect x="277.105" y="434.678" transform="matrix(-0.7703 0.6377 -0.6377 -0.7703 780.6843 616.1251)" fill="#FFFFFF" width="4.524" height="28.001"/>
<rect x="681.658" y="308.501" transform="matrix(-0.766 -0.6428 0.6428 -0.766 999.8895 1004.0372)" fill="#FFFFFF" width="2.037" height="23.081"/>
<rect x="428.663" y="563.468" transform="matrix(-0.9735 0.2289 -0.2289 -0.9735 978.1891 1024.6841)" fill="#FFFFFF" width="2.035" height="11.185"/>
<rect x="467.192" y="633.728" transform="matrix(-0.9734 0.229 -0.229 -0.9734 1070.3591 1154.4575)" fill="#FFFFFF" width="2.035" height="11.185"/>
<rect x="564.631" y="336.578" transform="matrix(-0.9734 0.229 -0.229 -0.9734 1194.6145 545.7405)" fill="#FFFFFF" width="2.035" height="11.185"/>
<rect x="466.08" y="350.228" transform="matrix(-0.9736 0.2284 -0.2284 -0.9736 1003.1169 595.5513)" fill="#FFFFFF" width="2.035" height="11.184"/>
<rect x="499.29" y="103.257" transform="matrix(-0.9735 0.2289 -0.2289 -0.9735 1012.2475 100.3127)" fill="#FFFFFF" width="2.035" height="11.184"/>
<rect x="562.342" y="529.622" transform="matrix(-0.9736 0.2284 -0.2284 -0.9736 1234.0701 927.6125)" fill="#FFFFFF" width="2.035" height="11.185"/>
<rect x="469.462" y="448.778" transform="matrix(-0.9736 0.2284 -0.2284 -0.9736 1032.3008 789.2745)" fill="#FFFFFF" width="2.035" height="11.185"/>
<rect x="543.436" y="103.808" transform="matrix(-0.9736 0.2284 -0.2284 -0.9736 1099.5037 91.5587)" fill="#FFFFFF" width="2.035" height="11.185"/>
<rect x="523.508" y="580.735" transform="matrix(-0.9734 0.229 -0.229 -0.9734 1169.3628 1036.9847)" fill="#FFFFFF" width="2.035" height="11.185"/>
<rect x="459.406" y="535.299" transform="matrix(-0.9734 0.229 -0.229 -0.9734 1032.4576 961.9974)" fill="#FFFFFF" width="2.035" height="11.185"/>
<rect x="511.19" y="65.225" transform="matrix(-0.9735 0.2289 -0.2289 -0.9735 1027.028 22.5361)" fill="#FFFFFF" width="2.035" height="11.185"/>
<rect x="718.986" y="227.896" transform="matrix(-0.8541 0.5201 -0.5201 -0.8541 1456.394 58.4129)" fill="#FFFFFF" width="2.035" height="11.185"/>
<rect x="605.514" y="284.6" transform="matrix(-0.9736 0.2284 -0.2284 -0.9736 1263.3113 434.1836)" fill="#FFFFFF" width="2.035" height="11.184"/>
<rect x="629.773" y="330.925" transform="matrix(-0.9736 0.2284 -0.2284 -0.9736 1321.7682 520.0689)" fill="#FFFFFF" width="2.035" height="11.184"/>
<rect x="518.907" y="238.605" transform="matrix(-0.9736 0.2284 -0.2284 -0.9736 1081.8804 363.19)" fill="#FFFFFF" width="2.035" height="11.184"/>
<rect x="511.189" y="211.865" transform="matrix(-0.9736 0.2284 -0.2284 -0.9736 1060.5416 312.18)" fill="#FFFFFF" width="2.035" height="11.184"/>
<rect x="459.402" y="124.934" transform="matrix(-0.9734 0.229 -0.229 -0.9734 938.4929 152.1668)" fill="#FFFFFF" width="2.035" height="11.184"/>
<rect x="560.042" y="130.612" transform="matrix(-0.9736 0.2284 -0.2284 -0.9736 1138.3973 140.6631)" fill="#FFFFFF" width="2.035" height="11.184"/>
<rect x="691.985" y="183.212" transform="matrix(-0.9734 0.229 -0.229 -0.9734 1410.825 213.9243)" fill="#FFFFFF" width="2.035" height="11.185"/>
<rect x="538.201" y="65.265" transform="matrix(-0.9734 0.2291 -0.2291 -0.9734 1080.3287 16.3139)" fill="#FFFFFF" width="2.034" height="11.185"/>
<rect x="655.72" y="284.613" transform="matrix(-0.9735 0.2285 -0.2285 -0.9735 1362.4128 422.6654)" fill="#FFFFFF" width="2.034" height="11.185"/>
<rect x="744.134" y="174.803" transform="matrix(-0.5659 -0.8245 0.8245 -0.5659 1013.0819 911.043)" fill="#FFFFFF" width="4.523" height="28"/>
<rect x="662.476" y="156.839" transform="matrix(0.4432 -0.8964 0.8964 0.4432 216.9608 690.9912)" fill="#FFFFFF" width="4.523" height="28"/>
<rect x="576.144" y="434.693" transform="matrix(-0.8782 -0.4783 0.4783 -0.8782 871.7552 1119.3826)" fill="#FFFFFF" width="4.523" height="28.001"/>
<rect x="445.979" y="214.182" transform="matrix(-0.6422 0.7666 -0.7666 -0.6422 911.0038 31.114)" fill="#FFFFFF" width="4.523" height="27.999"/>
<rect x="576.565" y="605.887" transform="matrix(-0.9241 -0.3823 0.3823 -0.9241 876.7296 1413.9629)" fill="#FFFFFF" width="4.524" height="28.002"/>
<rect x="717.723" y="264.492" transform="matrix(0.2722 -0.9622 0.9622 0.2722 256.0032 895.4659)" fill="#FFFFFF" width="4.523" height="28.001"/>
<rect x="640.714" y="347.496" transform="matrix(0.7675 -0.641 0.641 0.7675 -82.2511 496.1921)" fill="#FFFFFF" width="4.523" height="28.001"/>
<rect x="744.134" y="116.525" transform="matrix(-0.8042 -0.5944 0.5944 -0.8042 1269.0703 679.1177)" fill="#FFFFFF" width="4.523" height="28"/>
<rect x="567.435" y="80.839" fill="#FFFFFF" width="4.523" height="28"/>
<rect x="647.595" y="216.222" transform="matrix(-0.9406 0.3394 -0.3394 -0.9406 1339.2759 226.2296)" fill="#FFFFFF" width="4.523" height="28"/>
<rect x="392.317" y="480.087" transform="matrix(-0.811 -0.5851 0.5851 -0.811 425.466 1125.6418)" fill="#FFFFFF" width="4.523" height="28.001"/>
<rect x="316.931" y="499.016" transform="matrix(-0.811 -0.5851 0.5851 -0.811 277.8706 1115.8118)" fill="#FFFFFF" width="4.523" height="28.001"/>
<rect x="374.585" y="566.65" transform="matrix(-0.811 -0.5851 0.5851 -0.811 342.7055 1272.0272)" fill="#FFFFFF" width="4.523" height="28.001"/>
<rect x="282.341" y="505.442" transform="matrix(-0.811 -0.5851 0.5851 -0.811 211.4702 1107.2095)" fill="#FFFFFF" width="4.523" height="28.001"/>
<rect x="335.308" y="553.973" transform="matrix(-0.811 -0.5851 0.5851 -0.811 278.9935 1226.0886)" fill="#FFFFFF" width="4.523" height="28.001"/>
<rect x="474.37" y="80.85" transform="matrix(-0.9531 0.3027 -0.3027 -0.9531 959.6113 40.9624)" fill="#FFFFFF" width="4.523" height="28"/>
</svg>
