<?xml version="1.0" encoding="utf-8"?>
<!-- Generator: Adobe Illustrator 16.0.0, SVG Export Plug-In . SVG Version: 6.00 Build 0)  -->
<!DOCTYPE svg PUBLIC "-//W3C//DTD SVG 1.1//EN" "http://www.w3.org/Graphics/SVG/1.1/DTD/svg11.dtd">
<svg version="1.1" id="图形" xmlns="http://www.w3.org/2000/svg" xmlns:xlink="http://www.w3.org/1999/xlink" x="0px" y="0px"
	 width="1000.637px" height="1000.678px" viewBox="15.167 -16.333 1000.637 1000.678"
	 enable-background="new 15.167 -16.333 1000.637 1000.678" xml:space="preserve">
<path d="M502.13,326.841h17.217c2.328-13.675,3.716-28.727,3.925-44.549c0.83-63.18-17.435-114.646-40.799-114.954
	c-23.363-0.308-42.977,50.661-43.809,113.84c-0.433,32.898,4.313,62.613,12.26,83.59l7.652,0.102
	c-0.386-7.835-0.54-16.066-0.428-24.557c0.328-24.955,17.259-105.529,24.085-94.328c6.828,11.203,6.828,11.203,11.607,25.733
	C498.601,286.184,501.496,304.679,502.13,326.841z M468.583,224.365c-2.269-5.15-3.59-11.764-3.495-18.965
	c0.214-16.279,7.573-29.38,16.437-29.264s15.875,13.407,15.66,29.686c-0.094,7.201-1.588,13.778-3.992,18.867L468.583,224.365z"/>
<path d="M814.278,347.729c-46.586-21.285-101.873-44.367-161.719-67.133c-44.619-16.974-87.269-32.633-126.212-46.17v2.835
	c38.826,13.692,81.053,29.323,125.162,46.103c57.257,21.781,110.52,43.803,156.439,64.366H814.278z"/>
<path d="M435.819,228.047c-48.659,15.989-104.927,36.564-164.329,60.465c-44.288,17.82-86.237,35.269-124.025,51.76l1.925,2.082
	c37.806-16.298,79.426-33.48,123.208-51.097c56.832-22.867,110.893-42.847,158.573-58.914L435.819,228.047z"/>
<g>
	<path d="M691.633,339.191c-25.258-14.381-53.663-29.65-83.981-44.991c-28.883-14.615-56.53-28.204-81.83-40.098l-0.201,1.912
		c25.209,11.99,52.573,25.529,81.128,39.977c28.884,14.615,56.109,29.153,80.688,42.966c-47.383-2.586-99.771-4.095-154.147-5.437
		c-0.605,5.032-1.304,9.954-2.114,14.715h-19.832c-0.149-5.237-0.415-10.287-0.78-15.165c-11.565-0.172-23.255-0.26-35.054-0.26
		c-3.826,0-7.636,0.013-11.438,0.031c-1.036,6.487-1.879,12.606-2.467,18.003c5.03-0.021,10.078-0.034,15.149-0.034
		c150.239,0,282.969,1.315,362.943,12.774c0.132-2.349,0.444-4.68,0.966-6.955C803.472,347.754,751.7,342.573,691.633,339.191z"/>
	<path d="M291.455,336.869c11.985-7.831,24.379-15.835,37.092-23.969c34.988-22.387,68.494-42.502,98.241-59.207l2.556-3.447
		c-30.409,16.776-65.31,37.565-101.88,60.964c-13.71,8.772-27.027,17.403-39.827,25.822c-75.045,3.25-138.512,8.869-183.149,19.468
		c0.377,1.713,0.719,3.433,1.016,5.161c72.96-10.062,195.444-9.307,336.498-10.682c-0.908-5.758-1.667-11.733-2.259-17.899
		C387.173,333.878,337.207,334.947,291.455,336.869z"/>
</g>
</svg>
