<?xml version="1.0" encoding="utf-8"?>
<!-- Generator: Adobe Illustrator 16.0.0, SVG Export Plug-In . SVG Version: 6.00 Build 0)  -->
<!DOCTYPE svg PUBLIC "-//W3C//DTD SVG 1.1//EN" "http://www.w3.org/Graphics/SVG/1.1/DTD/svg11.dtd">
<svg version="1.1" id="图形" xmlns="http://www.w3.org/2000/svg" xmlns:xlink="http://www.w3.org/1999/xlink" x="0px" y="0px"
	 width="1000.637px" height="1000.678px" viewBox="15.167 -16.333 1000.637 1000.678"
	 enable-background="new 15.167 -16.333 1000.637 1000.678" xml:space="preserve">
<polygon points="462.694,606.453 462.009,604.573 402.272,626.294 355.53,587.222 364.539,528.293 362.562,527.99 353.736,585.723 
	353.355,585.404 341.985,650.601 404.133,627.849 404.046,627.777 "/>
<path fill="none" stroke="#000000" stroke-miterlimit="10" d="M696.818,434.839"/>
<rect x="450.877" y="286.158" transform="matrix(0.7532 0.6578 -0.6578 0.7532 389.7714 -193.2895)" width="3.217" height="273.305"/>
<rect x="540.885" y="385.37" transform="matrix(0.7534 0.6576 -0.6576 0.7534 470.4937 -230.461)" width="3.217" height="253.306"/>
<rect x="520.226" y="359.11" transform="matrix(0.7533 0.6577 -0.6577 0.7533 386.9691 -294.1188)" width="130.528" height="19.177"/>
<polygon points="455.06,609.708 427.851,585.95 396.667,558.722 361.681,528.172 363.288,526.331 456.667,607.868 "/>
<path d="M649.291,394.859c-2.06,2.359-5.346,2.859-7.34,1.118l-91.809-80.166c-1.994-1.741-1.94-5.064,0.119-7.423l13.589-15.563
	c2.06-2.359,5.346-2.859,7.339-1.118l91.81,80.166c1.994,1.741,1.94,5.064-0.119,7.423L649.291,394.859z"/>
<rect x="463.908" y="351.955" transform="matrix(0.7639 0.6454 -0.6454 0.7639 405.4286 -195.7603)" width="12.629" height="208.374"/>
<rect x="509.709" y="392.819" transform="matrix(0.7531 0.6579 -0.6579 0.7531 454.3906 -216.7841)" width="12.629" height="208.374"/>
</svg>
